<svg id="a6c63c94-cd8a-4572-a76b-37256ccb6da6" data-name="图层 1" xmlns="http://www.w3.org/2000/svg" width="3870.24" height="453.547" viewBox="0 0 2902.68 340.16"><defs><style>.ace58c34-133c-4cf1-b757-5414c23c113a,.ba1341c9-9714-4439-adbb-907eb7020c24{fill:#84cab8;}.a029bd71-b028-4a5c-bf4b-74e4a6938e70,.a30f5cb8-41f4-42ba-b888-de393052a685,.a554bc56-8b07-410f-81b1-fff94a636d6a,.a60732cc-71e8-4f6c-b4eb-593bf84e12eb,.a7963ac3-3dda-4ebf-a74b-3fecb34efe6b,.a7cb7e90-1854-499e-86e2-65d9af984ea2,.adfa06e3-20a0-47ee-8949-17d782ee668c,.ae5e10f6-f0d4-4335-b4da-b4bcf9f5a474,.b2607381-b119-4276-9f61-45119fcd66cf,.b2826462-d9ed-4f26-ae05-8d441d2bc8e0,.b2c7d9b2-6ad1-4937-b039-20892a08e102,.b3af459e-0637-4529-aacd-87c398afdc5d,.b46e48ba-48b9-43f9-a44b-da7d7fd733ca,.b6a28901-126e-4656-94ea-b5c3bc53d4f1,.b77c96f5-4ce8-4f15-971a-7cba28f4815d,.b9dd450f-2723-4d2a-bce8-4edbe7dc3d86,.ba3ca0d4-aea3-4dea-b484-b0f6d47279ee,.bac99a43-5433-4f0a-b630-4d8ec687deea,.bb47b291-ef50-4c73-8052-483397d1229e,.bd20c884-d243-43ec-af7b-49c96cf5e76c,.bd9cf4e5-2385-470d-9267-3d3212b72af7,.be2be6f8-e44e-4f79-9c6c-9d35d3c5d2b3,.bf5aa26f-bb3f-40d9-bb4e-a33a58b99296,.bfbe7892-5196-403d-8e3c-ca8fd4389033,.bfeceda6-a486-4b7f-9a0b-20a91f793b6b,.e465ce26-80a0-4dfe-8e9f-c81a034c0d63,.e99fc8eb-73db-44e4-8500-4a736d3c0843,.ef1cd2f1-9d35-46b7-89d4-54e744caf4a7,.f00852fb-7e3b-4db2-9621-1b09981d923b,.f02a69b5-4e8d-4646-89a1-8259f81ce848,.f0d9d694-dfd7-43dd-b168-99b5d8a70566,.f653855f-a61f-45c1-84a6-57b04e0fb6c5,.f9ceca52-c6e1-41a6-b806-a74168636e49,.faade5a5-34c7-41d1-9d9d-d730de3790eb,.fdcf19bf-f345-495c-bf3d-ab9ea79745a9,.ffebdecb-6e26-4195-af26-f04987b7d44a{fill:none;}.b9dd450f-2723-4d2a-bce8-4edbe7dc3d86,.ba3ca0d4-aea3-4dea-b484-b0f6d47279ee,.f0d9d694-dfd7-43dd-b168-99b5d8a70566,.f9ceca52-c6e1-41a6-b806-a74168636e49{stroke:#0c2812;}.a029bd71-b028-4a5c-bf4b-74e4a6938e70,.a30f5cb8-41f4-42ba-b888-de393052a685,.a554bc56-8b07-410f-81b1-fff94a636d6a,.a60732cc-71e8-4f6c-b4eb-593bf84e12eb,.a7963ac3-3dda-4ebf-a74b-3fecb34efe6b,.a7cb7e90-1854-499e-86e2-65d9af984ea2,.ace58c34-133c-4cf1-b757-5414c23c113a,.adfa06e3-20a0-47ee-8949-17d782ee668c,.ae5e10f6-f0d4-4335-b4da-b4bcf9f5a474,.b00d2be3-0a0a-4130-97f7-01c62e8267e3,.b2607381-b119-4276-9f61-45119fcd66cf,.b2826462-d9ed-4f26-ae05-8d441d2bc8e0,.b46a9704-05bd-4ccf-a550-79a5318dc453,.b46e48ba-48b9-43f9-a44b-da7d7fd733ca,.b6a28901-126e-4656-94ea-b5c3bc53d4f1,.b77c96f5-4ce8-4f15-971a-7cba28f4815d,.b9dd450f-2723-4d2a-bce8-4edbe7dc3d86,.ba3ca0d4-aea3-4dea-b484-b0f6d47279ee,.bac99a43-5433-4f0a-b630-4d8ec687deea,.bb47b291-ef50-4c73-8052-483397d1229e,.bd20c884-d243-43ec-af7b-49c96cf5e76c,.bd9cf4e5-2385-470d-9267-3d3212b72af7,.be2be6f8-e44e-4f79-9c6c-9d35d3c5d2b3,.bf5aa26f-bb3f-40d9-bb4e-a33a58b99296,.bfbe7892-5196-403d-8e3c-ca8fd4389033,.bfeceda6-a486-4b7f-9a0b-20a91f793b6b,.e465ce26-80a0-4dfe-8e9f-c81a034c0d63,.e99fc8eb-73db-44e4-8500-4a736d3c0843,.ef1cd2f1-9d35-46b7-89d4-54e744caf4a7,.f00852fb-7e3b-4db2-9621-1b09981d923b,.f02a69b5-4e8d-4646-89a1-8259f81ce848,.f0d9d694-dfd7-43dd-b168-99b5d8a70566,.f9ceca52-c6e1-41a6-b806-a74168636e49,.fa9ab833-c553-4e79-a313-6da278e1ea1b,.fdcf19bf-f345-495c-bf3d-ab9ea79745a9,.fe39b0f2-eaa3-459b-90b1-be70c7b42a8d,.ffebdecb-6e26-4195-af26-f04987b7d44a{stroke-miterlimit:10;}.b9dd450f-2723-4d2a-bce8-4edbe7dc3d86{stroke-width:5.29px;}.f9ceca52-c6e1-41a6-b806-a74168636e49{stroke-width:5.76px;}.f0d9d694-dfd7-43dd-b168-99b5d8a70566{stroke-width:5.41px;}.ba3ca0d4-aea3-4dea-b484-b0f6d47279ee{stroke-width:1.44px;}.af273bf6-34cf-4892-9870-e985e64aad65{fill:#3766a5;}.bfbe7892-5196-403d-8e3c-ca8fd4389033{stroke:#34619b;}.b2607381-b119-4276-9f61-45119fcd66cf,.bfbe7892-5196-403d-8e3c-ca8fd4389033{stroke-width:0.58px;}.a228b67e-d0e2-4992-aee3-d397be53563b{fill:#3c0004;}.b44d6f69-0e21-41a3-b834-9ea56de1499e{fill:#eeec99;}.b2c7d9b2-6ad1-4937-b039-20892a08e102,.b77c96f5-4ce8-4f15-971a-7cba28f4815d{stroke:#357d39;}.b2c7d9b2-6ad1-4937-b039-20892a08e102,.b3af459e-0637-4529-aacd-87c398afdc5d,.f653855f-a61f-45c1-84a6-57b04e0fb6c5,.faade5a5-34c7-41d1-9d9d-d730de3790eb{stroke-linecap:round;stroke-linejoin:round;}.b2c7d9b2-6ad1-4937-b039-20892a08e102,.b3af459e-0637-4529-aacd-87c398afdc5d,.faade5a5-34c7-41d1-9d9d-d730de3790eb{stroke-width:0.36px;}.b3af459e-0637-4529-aacd-87c398afdc5d{stroke:#337938;}.b77c96f5-4ce8-4f15-971a-7cba28f4815d,.bb47b291-ef50-4c73-8052-483397d1229e{stroke-width:0.29px;}.a787a4fe-9ea8-4fc2-a98f-244aa7038b16{fill:#ef7c1b;}.b2607381-b119-4276-9f61-45119fcd66cf{stroke:#e37820;}.e090a4bc-334f-4e36-b077-84ba03bcc3e5{fill:#9e204c;}.a2f29839-ec11-4028-a241-732f1bae4037{fill:#111e0b;}.bb47b291-ef50-4c73-8052-483397d1229e,.faade5a5-34c7-41d1-9d9d-d730de3790eb{stroke:#111d0b;}.bbf05358-473d-4335-814c-f02506a779a4{font-size:43.66px;fill:#231815;font-family:TimesNewRomanPS-BoldMT, Times New Roman;font-weight:700;}.a7cb7e90-1854-499e-86e2-65d9af984ea2,.b46e48ba-48b9-43f9-a44b-da7d7fd733ca,.b6a28901-126e-4656-94ea-b5c3bc53d4f1,.fdcf19bf-f345-495c-bf3d-ab9ea79745a9{stroke:#601986;}.b46e48ba-48b9-43f9-a44b-da7d7fd733ca,.e465ce26-80a0-4dfe-8e9f-c81a034c0d63{stroke-width:7.14px;}.a7cb7e90-1854-499e-86e2-65d9af984ea2{stroke-width:1.65px;}.fdcf19bf-f345-495c-bf3d-ab9ea79745a9{stroke-width:1.67px;}.b6a28901-126e-4656-94ea-b5c3bc53d4f1{stroke-width:2.5px;}.e465ce26-80a0-4dfe-8e9f-c81a034c0d63,.f653855f-a61f-45c1-84a6-57b04e0fb6c5{stroke:#231815;}.b46a9704-05bd-4ccf-a550-79a5318dc453,.be2be6f8-e44e-4f79-9c6c-9d35d3c5d2b3,.bfeceda6-a486-4b7f-9a0b-20a91f793b6b,.ffebdecb-6e26-4195-af26-f04987b7d44a{stroke:#bc2721;}.a029bd71-b028-4a5c-bf4b-74e4a6938e70,.a7963ac3-3dda-4ebf-a74b-3fecb34efe6b,.ae5e10f6-f0d4-4335-b4da-b4bcf9f5a474,.bd20c884-d243-43ec-af7b-49c96cf5e76c,.bf5aa26f-bb3f-40d9-bb4e-a33a58b99296,.f00852fb-7e3b-4db2-9621-1b09981d923b,.f02a69b5-4e8d-4646-89a1-8259f81ce848,.ffebdecb-6e26-4195-af26-f04987b7d44a{stroke-width:1.38px;}.b0101143-c9d8-4c75-b9ef-ed1ddd63bc0f{fill:#d5221e;}.adfa06e3-20a0-47ee-8949-17d782ee668c,.b2826462-d9ed-4f26-ae05-8d441d2bc8e0{stroke:#c82520;}.a30f5cb8-41f4-42ba-b888-de393052a685,.a554bc56-8b07-410f-81b1-fff94a636d6a,.a60732cc-71e8-4f6c-b4eb-593bf84e12eb,.adfa06e3-20a0-47ee-8949-17d782ee668c,.b00d2be3-0a0a-4130-97f7-01c62e8267e3,.b46a9704-05bd-4ccf-a550-79a5318dc453,.bac99a43-5433-4f0a-b630-4d8ec687deea,.bd9cf4e5-2385-470d-9267-3d3212b72af7,.bfeceda6-a486-4b7f-9a0b-20a91f793b6b,.e99fc8eb-73db-44e4-8500-4a736d3c0843,.ef1cd2f1-9d35-46b7-89d4-54e744caf4a7,.fa9ab833-c553-4e79-a313-6da278e1ea1b,.fe39b0f2-eaa3-459b-90b1-be70c7b42a8d{stroke-width:0.92px;}.b2826462-d9ed-4f26-ae05-8d441d2bc8e0,.be2be6f8-e44e-4f79-9c6c-9d35d3c5d2b3{stroke-width:1.04px;}.a4c5cb60-a153-47a5-b81a-a2d2640a0224{fill:#bc2721;}.b00d2be3-0a0a-4130-97f7-01c62e8267e3,.b46a9704-05bd-4ccf-a550-79a5318dc453,.fa9ab833-c553-4e79-a313-6da278e1ea1b,.fe39b0f2-eaa3-459b-90b1-be70c7b42a8d{fill:#18428f;}.a554bc56-8b07-410f-81b1-fff94a636d6a,.bd20c884-d243-43ec-af7b-49c96cf5e76c,.fe39b0f2-eaa3-459b-90b1-be70c7b42a8d{stroke:#5f3888;}.bba1654e-4f5e-42a8-98c1-c51816aa688f{fill:#c82520;}.eb613b0c-f64e-4c3e-a79f-51ddb3f45b45{fill:#643b90;}.a60732cc-71e8-4f6c-b4eb-593bf84e12eb,.bf5aa26f-bb3f-40d9-bb4e-a33a58b99296{stroke:#c6afd2;}.ac0f445d-40eb-4906-a956-c62507a2805d{fill:#c6afd2;}.a7963ac3-3dda-4ebf-a74b-3fecb34efe6b,.b00d2be3-0a0a-4130-97f7-01c62e8267e3{stroke:#19459b;}.ef1cd2f1-9d35-46b7-89d4-54e744caf4a7,.f02a69b5-4e8d-4646-89a1-8259f81ce848{stroke:#379939;}.e0621e69-e405-4f32-afad-af6b35364664{fill:#379939;}.a30f5cb8-41f4-42ba-b888-de393052a685,.ae5e10f6-f0d4-4335-b4da-b4bcf9f5a474{stroke:#ef7c1b;}.e99fc8eb-73db-44e4-8500-4a736d3c0843,.f00852fb-7e3b-4db2-9621-1b09981d923b,.fa9ab833-c553-4e79-a313-6da278e1ea1b{stroke:#209773;}.a3253f5b-a741-48fc-a312-421d9c72b2f1{fill:#209773;}.fcc04bd3-71d1-45a5-a5a2-af9082701d6f{fill:#040000;}.bac99a43-5433-4f0a-b630-4d8ec687deea{stroke:#040000;}.a029bd71-b028-4a5c-bf4b-74e4a6938e70,.bd9cf4e5-2385-470d-9267-3d3212b72af7{stroke:#d62d81;}.b5c749ae-0131-4ac3-a4a9-7abfa4693f9c{fill:#d62e81;}.ace58c34-133c-4cf1-b757-5414c23c113a{stroke:#84cab8;stroke-width:1.01px;}.f653855f-a61f-45c1-84a6-57b04e0fb6c5{stroke-width:6.12px;}</style></defs><polygon class="ba1341c9-9714-4439-adbb-907eb7020c24" points="2634.7 148.15 2634.7 332.36 2634.7 334.84 394.98 334.84 394.98 149.03 2634.7 148.15"/><polyline class="b9dd450f-2723-4d2a-bce8-4edbe7dc3d86" points="2634.7 332.36 2634.7 148.15 2634.7 140.26"/><polyline class="f9ceca52-c6e1-41a6-b806-a74168636e49" points="2642.22 334.84 2634.7 334.84 394.98 334.84 392 334.84"/><polyline class="f0d9d694-dfd7-43dd-b168-99b5d8a70566" points="394.98 340.16 394.98 334.84 394.98 149.03 394.98 138.89"/><polyline class="ba3ca0d4-aea3-4dea-b484-b0f6d47279ee" points="386.96 149.03 394.98 149.03 2634.7 148.15 2639.49 148.15"/><path class="af273bf6-34cf-4892-9870-e985e64aad65" d="M167.05,148.4c-66.16,0-67.79,109.46,0,109.46V258c-134.26-1.11-131-218,.21-218.88,64.33,2.78,62.74,106.72-.21,109.33Z"/><path class="bfbe7892-5196-403d-8e3c-ca8fd4389033" d="M168.09,258h-1c-134.26-1.11-131-218,.21-218.88h.83"/><path class="bfbe7892-5196-403d-8e3c-ca8fd4389033" d="M167.05,257.86c-67.79,0-66.16-109.46,0-109.46"/><path class="bfbe7892-5196-403d-8e3c-ca8fd4389033" d="M164.61,39.06c.9,0,1.79,0,2.65.06,64.33,2.78,62.74,106.72-.21,109.33-.8.05-1.62.06-2.44.06"/><path class="a228b67e-d0e2-4992-aee3-d397be53563b" d="M180.58,94.44a16.42,16.42,0,1,1-16.42-16.58A16.5,16.5,0,0,1,180.58,94.44Z"/><path class="b44d6f69-0e21-41a3-b834-9ea56de1499e" d="M166.93,116.32l-4.78,4.41-.09,0-.2-2.49v-.12c-7.71.5-9.37-1.8-10.69-9.68l3.44-.66c.7,5.65,1.62,6.69,6.95,6.77v-.08l.22-2.55Z"/><path class="b2c7d9b2-6ad1-4937-b039-20892a08e102" d="M161.71,114.53h-.15c-5.33-.08-6.25-1.12-6.95-6.77,0-.07,0-.13,0-.2"/><path class="b2c7d9b2-6ad1-4937-b039-20892a08e102" d="M162,118.09a.81.81,0,0,1-.15,0c-7.71.5-9.37-1.8-10.69-9.68,0,0,0-.1,0-.15"/><line class="b2c7d9b2-6ad1-4937-b039-20892a08e102" x1="161.78" y1="111.9" x2="161.56" y2="114.45"/><line class="b2c7d9b2-6ad1-4937-b039-20892a08e102" x1="161.86" y1="118.22" x2="162.06" y2="120.71"/><line class="b2c7d9b2-6ad1-4937-b039-20892a08e102" x1="166.93" y1="116.32" x2="161.78" y2="111.9"/><line class="b2c7d9b2-6ad1-4937-b039-20892a08e102" x1="166.93" y1="116.32" x2="162.15" y2="120.73"/><polyline class="b2c7d9b2-6ad1-4937-b039-20892a08e102" points="154.67 107.75 154.61 107.76 151.17 108.42 150.94 108.46"/><path class="b44d6f69-0e21-41a3-b834-9ea56de1499e" d="M183,107.07l2.31,6.07,0,.08-2.38-.74-.12,0c-2.4,7.33-5.16,8-13,6.3l.68-3.43c5.5,1.45,6.81,1,8.86-3.93l-.07,0L177,110.2Z"/><path class="b2c7d9b2-6ad1-4937-b039-20892a08e102" d="M179.38,111.24l-.07.14c-2.05,4.92-3.36,5.38-8.86,3.93l-.2-.06"/><path class="b2c7d9b2-6ad1-4937-b039-20892a08e102" d="M182.79,112.29l0,.15c-2.4,7.33-5.16,8-13,6.3l-.14,0"/><line class="b2c7d9b2-6ad1-4937-b039-20892a08e102" x1="176.96" y1="110.2" x2="179.24" y2="111.36"/><line class="b2c7d9b2-6ad1-4937-b039-20892a08e102" x1="182.86" y1="112.48" x2="185.24" y2="113.22"/><line class="b2c7d9b2-6ad1-4937-b039-20892a08e102" x1="182.98" y1="107.07" x2="176.96" y2="110.2"/><line class="b2c7d9b2-6ad1-4937-b039-20892a08e102" x1="182.98" y1="107.07" x2="185.29" y2="113.14"/><polyline class="b2c7d9b2-6ad1-4937-b039-20892a08e102" points="170.46 115.25 170.45 115.31 169.77 118.74 169.73 118.97"/><path class="b44d6f69-0e21-41a3-b834-9ea56de1499e" d="M192.18,91.7c3.07,7.09,1.46,9.43-5.52,13.33l-1.77-3c5.08-2.56,5.75-3.78,4-8.82l-.06,0-2.48.65,2.42-6.34,5.77,3v.1l-2.28,1Z"/><path class="b2c7d9b2-6ad1-4937-b039-20892a08e102" d="M188.87,93.05l0,.14c1.73,5,1.06,6.26-4,8.82a1.63,1.63,0,0,1-.19.09"/><path class="b2c7d9b2-6ad1-4937-b039-20892a08e102" d="M192.12,91.57s0,.09.06.13c3.07,7.09,1.46,9.43-5.52,13.33a.75.75,0,0,1-.12.07"/><line class="b2c7d9b2-6ad1-4937-b039-20892a08e102" x1="186.37" y1="93.87" x2="188.85" y2="93.22"/><line class="b2c7d9b2-6ad1-4937-b039-20892a08e102" x1="192.29" y1="91.66" x2="194.57" y2="90.64"/><line class="b2c7d9b2-6ad1-4937-b039-20892a08e102" x1="188.79" y1="87.53" x2="186.37" y2="93.87"/><line class="b2c7d9b2-6ad1-4937-b039-20892a08e102" x1="188.79" y1="87.53" x2="194.56" y2="90.54"/><polyline class="b2c7d9b2-6ad1-4937-b039-20892a08e102" points="184.86 101.97 184.89 102.01 186.66 105.03 186.78 105.23"/><path class="b44d6f69-0e21-41a3-b834-9ea56de1499e" d="M176.2,70.08l6-2.51.09.05L181.62,70l0,.11c7.41,2.17,8.19,4.9,6.72,12.76l-3.45-.56c1.27-5.55.77-6.85-4.21-8.74l0,.07L179.53,76Z"/><path class="b2c7d9b2-6ad1-4937-b039-20892a08e102" d="M180.49,73.54l.15.06c5,1.89,5.48,3.19,4.21,8.74l0,.2"/><path class="b2c7d9b2-6ad1-4937-b039-20892a08e102" d="M181.44,70.1l.14,0c7.41,2.17,8.19,4.9,6.72,12.76a.7.7,0,0,1,0,.14"/><line class="b2c7d9b2-6ad1-4937-b039-20892a08e102" x1="179.53" y1="76" x2="180.61" y2="73.67"/><line class="b2c7d9b2-6ad1-4937-b039-20892a08e102" x1="181.62" y1="70.03" x2="182.29" y2="67.62"/><line class="b2c7d9b2-6ad1-4937-b039-20892a08e102" x1="176.2" y1="70.08" x2="179.53" y2="76"/><line class="b2c7d9b2-6ad1-4937-b039-20892a08e102" x1="176.2" y1="70.08" x2="182.2" y2="67.57"/><polyline class="b2c7d9b2-6ad1-4937-b039-20892a08e102" points="184.79 82.33 184.85 82.34 188.3 82.9 188.53 82.94"/><path class="b44d6f69-0e21-41a3-b834-9ea56de1499e" d="M155.34,68.08l2.07-6.17.1,0L158.87,64l.06.1c6.52-4.13,9.09-2.9,14,3.39l-2.71,2.22c-3.32-4.63-4.62-5.1-9.33-2.61l0,.06,1,2.35Z"/><path class="b2c7d9b2-6ad1-4937-b039-20892a08e102" d="M160.77,67.15l.14-.07c4.71-2.49,6-2,9.33,2.61,0,.06.08.1.12.17"/><path class="b2c7d9b2-6ad1-4937-b039-20892a08e102" d="M158.81,64.16l.12-.08c6.52-4.13,9.09-2.9,14,3.39l.09.11"/><line class="b2c7d9b2-6ad1-4937-b039-20892a08e102" x1="161.97" y1="69.49" x2="160.95" y2="67.14"/><line class="b2c7d9b2-6ad1-4937-b039-20892a08e102" x1="158.87" y1="63.98" x2="157.51" y2="61.89"/><line class="b2c7d9b2-6ad1-4937-b039-20892a08e102" x1="155.34" y1="68.08" x2="161.97" y2="69.49"/><line class="b2c7d9b2-6ad1-4937-b039-20892a08e102" x1="155.34" y1="68.08" x2="157.41" y2="61.91"/><polyline class="b2c7d9b2-6ad1-4937-b039-20892a08e102" points="170.2 69.73 170.25 69.69 172.95 67.47 173.13 67.32"/><path class="b44d6f69-0e21-41a3-b834-9ea56de1499e" d="M140,82.45,133.61,85l-2.91-6.38,2.86,1c3.1-5.86,6.95-9.44,15-9.2L148.52,74c-5.16,0-9.88,1.85-11.22,7.45l2.74,1Z"/><path class="b3af459e-0637-4529-aacd-87c398afdc5d" d="M137.3,81.41c1.34-5.6,6.06-7.49,11.22-7.45a1.92,1.92,0,0,0,.24,0"/><path class="b3af459e-0637-4529-aacd-87c398afdc5d" d="M133.56,79.65c3.1-5.86,6.95-9.44,15-9.2,0,0,.07,0,.11,0"/><polyline class="b3af459e-0637-4529-aacd-87c398afdc5d" points="140.4 82.56 140.04 82.42 137.3 81.41"/><line class="b3af459e-0637-4529-aacd-87c398afdc5d" x1="133.56" y1="79.65" x2="130.7" y2="78.61"/><line class="b3af459e-0637-4529-aacd-87c398afdc5d" x1="133.61" y1="84.99" x2="140.03" y2="82.45"/><line class="b3af459e-0637-4529-aacd-87c398afdc5d" x1="133.61" y1="84.99" x2="130.7" y2="78.61"/><polyline class="b3af459e-0637-4529-aacd-87c398afdc5d" points="148.53 74.01 148.52 73.96 148.59 70.45 148.59 70.21"/><path class="b44d6f69-0e21-41a3-b834-9ea56de1499e" d="M118.77,104.75,114,99.64l3,.06c1.05-6.55,3.53-11.18,11.25-13.57l1.08,3.35c-4.9,1.64-8.76,4.94-8.22,10.66l2.92.09v0Z"/><path class="b3af459e-0637-4529-aacd-87c398afdc5d" d="M121.1,100.14c-.54-5.72,3.32-9,8.22-10.66a1.42,1.42,0,0,1,.22-.07"/><path class="b3af459e-0637-4529-aacd-87c398afdc5d" d="M117,99.7c1.05-6.55,3.53-11.18,11.25-13.57l.11,0"/><polyline class="b3af459e-0637-4529-aacd-87c398afdc5d" points="124.41 100.24 124.02 100.22 121.1 100.14"/><line class="b3af459e-0637-4529-aacd-87c398afdc5d" x1="116.99" y1="99.7" x2="113.95" y2="99.64"/><line class="b3af459e-0637-4529-aacd-87c398afdc5d" x1="118.77" y1="104.75" x2="124.02" y2="100.26"/><line class="b3af459e-0637-4529-aacd-87c398afdc5d" x1="118.77" y1="104.75" x2="113.95" y2="99.64"/><polyline class="b3af459e-0637-4529-aacd-87c398afdc5d" points="129.33 89.52 129.32 89.48 128.24 86.13 128.16 85.91"/><path class="b44d6f69-0e21-41a3-b834-9ea56de1499e" d="M116.46,134.57,110,128.65l3.46-.87c-1.65-8.3-1.87-11.18,3.15-17.47l2.77,2.13c-3.1,4.12-4.29,8.65-2,14.79l3.13-1.43Z"/><path class="b77c96f5-4ce8-4f15-971a-7cba28f4815d" d="M117.41,127.23c-2.3-6.14-1.11-10.67,2-14.79,0-.06.09-.13.14-.18"/><path class="b77c96f5-4ce8-4f15-971a-7cba28f4815d" d="M113.48,127.78c-1.65-8.3-1.87-11.18,3.15-17.47a.34.34,0,0,1,.07-.11"/><line class="b77c96f5-4ce8-4f15-971a-7cba28f4815d" x1="120.54" y1="125.8" x2="117.41" y2="127.23"/><line class="b77c96f5-4ce8-4f15-971a-7cba28f4815d" x1="113.48" y1="127.78" x2="110.02" y2="128.65"/><line class="b77c96f5-4ce8-4f15-971a-7cba28f4815d" x1="116.46" y1="134.57" x2="120.54" y2="125.8"/><line class="b77c96f5-4ce8-4f15-971a-7cba28f4815d" x1="116.46" y1="134.57" x2="110.02" y2="128.65"/><polyline class="b77c96f5-4ce8-4f15-971a-7cba28f4815d" points="119.45 112.47 119.4 112.44 116.63 110.31 116.44 110.16"/><path class="b44d6f69-0e21-41a3-b834-9ea56de1499e" d="M127.31,158.69l-8.64-1.39,2.4-2.63c-6-6-7.73-8.29-7-16.3l3.49.24c-.31,5.14,1.2,9.58,6.51,13.43l1.82-2.92Z"/><path class="b77c96f5-4ce8-4f15-971a-7cba28f4815d" d="M124,152c-5.31-3.85-6.82-8.29-6.51-13.43,0-.07,0-.15,0-.22"/><path class="b77c96f5-4ce8-4f15-971a-7cba28f4815d" d="M121.07,154.67c-6-6-7.73-8.29-7-16.3a.57.57,0,0,1,0-.13"/><line class="b77c96f5-4ce8-4f15-971a-7cba28f4815d" x1="125.86" y1="149.12" x2="124.04" y2="152.04"/><line class="b77c96f5-4ce8-4f15-971a-7cba28f4815d" x1="121.07" y1="154.67" x2="118.67" y2="157.3"/><line class="b77c96f5-4ce8-4f15-971a-7cba28f4815d" x1="127.31" y1="158.69" x2="125.86" y2="149.12"/><line class="b77c96f5-4ce8-4f15-971a-7cba28f4815d" x1="127.31" y1="158.69" x2="118.67" y2="157.3"/><polyline class="b77c96f5-4ce8-4f15-971a-7cba28f4815d" points="117.59 138.61 117.53 138.61 114.04 138.37 113.8 138.35"/><path class="b44d6f69-0e21-41a3-b834-9ea56de1499e" d="M140.53,112.86l-4.78-4.41,0-.09,2.46-.4h.12c-1.11-7.64,1.06-9.48,8.81-11.42l.92,3.38c-5.57,1.15-6.54,2.14-6.19,7.46H142l2.56,0Z"/><path class="b2c7d9b2-6ad1-4937-b039-20892a08e102" d="M141.9,107.52s0-.1,0-.15c-.35-5.32.62-6.31,6.19-7.46l.21,0"/><path class="b2c7d9b2-6ad1-4937-b039-20892a08e102" d="M138.37,108.1s0-.1,0-.15c-1.11-7.64,1.06-9.48,8.81-11.42l.14,0"/><line class="b2c7d9b2-6ad1-4937-b039-20892a08e102" x1="144.53" y1="107.38" x2="141.97" y2="107.36"/><line class="b2c7d9b2-6ad1-4937-b039-20892a08e102" x1="138.23" y1="107.96" x2="135.77" y2="108.36"/><line class="b2c7d9b2-6ad1-4937-b039-20892a08e102" x1="140.53" y1="112.86" x2="144.53" y2="107.38"/><line class="b2c7d9b2-6ad1-4937-b039-20892a08e102" x1="140.53" y1="112.86" x2="135.75" y2="108.45"/><polyline class="b2c7d9b2-6ad1-4937-b039-20892a08e102" points="148.1 99.96 148.08 99.91 147.16 96.53 147.1 96.31"/><path class="b44d6f69-0e21-41a3-b834-9ea56de1499e" d="M152.6,125.93l2.94,6.25-6.2,3.3.87-2.92c-6-2.73-9.86-6.35-10.12-14.43l3.52-.15c.29,5.15,2.45,9.74,8.11,10.74l.85-2.8Z"/><path class="b3af459e-0637-4529-aacd-87c398afdc5d" d="M151.72,128.72c-5.66-1-7.82-5.59-8.11-10.74a1.85,1.85,0,0,1,0-.24"/><path class="b3af459e-0637-4529-aacd-87c398afdc5d" d="M150.21,132.56c-6-2.73-9.86-6.35-10.12-14.43,0,0,0-.07,0-.12"/><polyline class="b3af459e-0637-4529-aacd-87c398afdc5d" points="152.69 125.56 152.57 125.92 151.72 128.72"/><line class="b3af459e-0637-4529-aacd-87c398afdc5d" x1="150.21" y1="132.56" x2="149.34" y2="135.48"/><line class="b3af459e-0637-4529-aacd-87c398afdc5d" x1="155.54" y1="132.18" x2="152.6" y2="125.93"/><line class="b3af459e-0637-4529-aacd-87c398afdc5d" x1="155.54" y1="132.18" x2="149.34" y2="135.48"/><polyline class="b3af459e-0637-4529-aacd-87c398afdc5d" points="143.65 117.97 143.61 117.98 140.09 118.13 139.86 118.14"/><path class="b44d6f69-0e21-41a3-b834-9ea56de1499e" d="M202.56,106.91l.83,8.71L200.24,114c-4.32,7.27-6.08,9.57-14,10.89l-.64-3.44c5.06-1,9-3.56,11.37-9.67l-3.29-1Z"/><path class="b77c96f5-4ce8-4f15-971a-7cba28f4815d" d="M197,111.74c-2.39,6.11-6.31,8.68-11.37,9.67l-.22,0"/><path class="b77c96f5-4ce8-4f15-971a-7cba28f4815d" d="M200.24,114c-4.32,7.27-6.08,9.57-14,10.89a.42.42,0,0,1-.13,0"/><line class="b77c96f5-4ce8-4f15-971a-7cba28f4815d" x1="193.66" y1="110.71" x2="196.95" y2="111.74"/><line class="b77c96f5-4ce8-4f15-971a-7cba28f4815d" x1="200.24" y1="113.96" x2="203.39" y2="115.62"/><line class="b77c96f5-4ce8-4f15-971a-7cba28f4815d" x1="202.56" y1="106.91" x2="193.66" y2="110.71"/><line class="b77c96f5-4ce8-4f15-971a-7cba28f4815d" x1="202.56" y1="106.91" x2="203.39" y2="115.62"/><polyline class="b77c96f5-4ce8-4f15-971a-7cba28f4815d" points="185.57 121.36 185.58 121.41 186.22 124.85 186.26 125.09"/><path class="b44d6f69-0e21-41a3-b834-9ea56de1499e" d="M206.42,83.51c2.78,8,3.39,10.81-.71,17.73l-3.05-1.72c2.5-4.51,3.07-9.17-.06-14.93l-2.91,1.85,2.84-9.25,7.19,5Z"/><path class="b77c96f5-4ce8-4f15-971a-7cba28f4815d" d="M202.6,84.59c3.13,5.76,2.56,10.42.06,14.93l-.11.19"/><path class="b77c96f5-4ce8-4f15-971a-7cba28f4815d" d="M206.42,83.51c2.78,8,3.39,10.81-.71,17.73l-.07.12"/><line class="b77c96f5-4ce8-4f15-971a-7cba28f4815d" x1="199.69" y1="86.44" x2="202.6" y2="84.59"/><line class="b77c96f5-4ce8-4f15-971a-7cba28f4815d" x1="206.42" y1="83.51" x2="209.72" y2="82.17"/><line class="b77c96f5-4ce8-4f15-971a-7cba28f4815d" x1="202.53" y1="77.19" x2="199.69" y2="86.44"/><line class="b77c96f5-4ce8-4f15-971a-7cba28f4815d" x1="202.53" y1="77.19" x2="209.72" y2="82.17"/><polyline class="b77c96f5-4ce8-4f15-971a-7cba28f4815d" points="202.61 99.49 202.66 99.52 205.71 101.24 205.93 101.37"/><path class="b44d6f69-0e21-41a3-b834-9ea56de1499e" d="M182.24,126.23l-.4,7L179.79,131c-5.48,3.74-10.55,5.11-17.59,1.15l1.7-3.1c4.56,2.43,9.6,3,13.39-1.34l-1.94-2.19,0,0Z"/><path class="b3af459e-0637-4529-aacd-87c398afdc5d" d="M177.29,127.7c-3.79,4.33-8.83,3.77-13.39,1.34l-.21-.11"/><path class="b3af459e-0637-4529-aacd-87c398afdc5d" d="M179.79,131c-5.48,3.74-10.55,5.11-17.59,1.15l-.1-.07"/><polyline class="b3af459e-0637-4529-aacd-87c398afdc5d" points="175.09 125.24 175.35 125.51 177.29 127.7"/><line class="b3af459e-0637-4529-aacd-87c398afdc5d" x1="179.79" y1="130.99" x2="181.84" y2="133.24"/><line class="b3af459e-0637-4529-aacd-87c398afdc5d" x1="182.24" y1="126.23" x2="175.37" y2="125.49"/><line class="b3af459e-0637-4529-aacd-87c398afdc5d" x1="182.24" y1="126.23" x2="181.84" y2="133.24"/><polyline class="b3af459e-0637-4529-aacd-87c398afdc5d" points="163.91 129.01 163.9 129.04 162.2 132.14 162.1 132.33"/><path class="b44d6f69-0e21-41a3-b834-9ea56de1499e" d="M195.51,71.35c.49-5.13-.87-9.62-6.06-13.64l-1.91,2.87L186.4,51,195,52.63l-2.48,2.55c5.76,6.2,7.46,8.53,6.5,16.52Z"/><path class="b77c96f5-4ce8-4f15-971a-7cba28f4815d" d="M189.45,57.71c5.19,4,6.55,8.51,6.06,13.64a1.62,1.62,0,0,1,0,.22"/><path class="b77c96f5-4ce8-4f15-971a-7cba28f4815d" d="M192.51,55.18c5.76,6.2,7.46,8.53,6.5,16.52,0,0,0,.09,0,.13"/><line class="b77c96f5-4ce8-4f15-971a-7cba28f4815d" x1="187.54" y1="60.58" x2="189.45" y2="57.71"/><line class="b77c96f5-4ce8-4f15-971a-7cba28f4815d" x1="192.51" y1="55.18" x2="194.99" y2="52.63"/><line class="b77c96f5-4ce8-4f15-971a-7cba28f4815d" x1="186.4" y1="50.97" x2="187.54" y2="60.58"/><line class="b77c96f5-4ce8-4f15-971a-7cba28f4815d" x1="186.4" y1="50.97" x2="194.99" y2="52.63"/><polyline class="b77c96f5-4ce8-4f15-971a-7cba28f4815d" points="195.47 71.34 195.51 71.35 199.01 71.7 199.25 71.73"/><path class="b44d6f69-0e21-41a3-b834-9ea56de1499e" d="M156.61,48.4l6.39-6,.61,3.49c8.39-1,11.28-1,17.18,4.44L178.47,53c-3.88-3.4-8.32-4.93-14.59-3.09l1.18,3.24Z"/><path class="b77c96f5-4ce8-4f15-971a-7cba28f4815d" d="M163.88,49.87c6.27-1.84,10.71-.31,14.59,3.09l.17.15"/><path class="b77c96f5-4ce8-4f15-971a-7cba28f4815d" d="M163.61,45.9c8.39-1,11.28-1,17.18,4.44a.28.28,0,0,1,.1.09"/><line class="b77c96f5-4ce8-4f15-971a-7cba28f4815d" x1="165.06" y1="53.11" x2="163.88" y2="49.87"/><line class="b77c96f5-4ce8-4f15-971a-7cba28f4815d" x1="163.61" y1="45.9" x2="163" y2="42.41"/><line class="b77c96f5-4ce8-4f15-971a-7cba28f4815d" x1="156.61" y1="48.4" x2="165.06" y2="53.11"/><line class="b77c96f5-4ce8-4f15-971a-7cba28f4815d" x1="156.61" y1="48.4" x2="163" y2="42.41"/><polyline class="b77c96f5-4ce8-4f15-971a-7cba28f4815d" points="178.43 52.99 178.47 52.95 180.79 50.34 180.97 50.15"/><path class="b44d6f69-0e21-41a3-b834-9ea56de1499e" d="M136.29,54.09c6.6-5.28,9.05-6.81,17-5.26l-.61,3.45c-5.08-.86-9.65.17-14,5l2.72,2.12-9.67.43,2.28-8.45Z"/><path class="b77c96f5-4ce8-4f15-971a-7cba28f4815d" d="M138.59,57.33c4.39-4.88,9-5.91,14-5a1.46,1.46,0,0,1,.22,0"/><path class="b77c96f5-4ce8-4f15-971a-7cba28f4815d" d="M136.29,54.09c6.6-5.28,9.05-6.81,17-5.26a.29.29,0,0,1,.13,0"/><line class="b77c96f5-4ce8-4f15-971a-7cba28f4815d" x1="141.31" y1="59.45" x2="138.59" y2="57.33"/><line class="b77c96f5-4ce8-4f15-971a-7cba28f4815d" x1="136.29" y1="54.09" x2="133.92" y2="51.43"/><line class="b77c96f5-4ce8-4f15-971a-7cba28f4815d" x1="131.64" y1="59.88" x2="141.31" y2="59.45"/><line class="b77c96f5-4ce8-4f15-971a-7cba28f4815d" x1="131.64" y1="59.88" x2="133.92" y2="51.43"/><polyline class="b77c96f5-4ce8-4f15-971a-7cba28f4815d" points="152.62 52.33 152.63 52.28 153.24 48.83 153.29 48.59"/><path class="b44d6f69-0e21-41a3-b834-9ea56de1499e" d="M110.31,80.61l-1.08-8.68,3.2,1.57c4.13-7.39,5.83-9.73,13.73-11.28l.73,3.42c-5,1.14-8.87,3.81-11.11,10l3.32.94Z"/><path class="b77c96f5-4ce8-4f15-971a-7cba28f4815d" d="M115.78,75.63c2.24-6.18,6.07-8.85,11.11-10l.22,0"/><path class="b77c96f5-4ce8-4f15-971a-7cba28f4815d" d="M112.43,73.5c4.13-7.39,5.83-9.73,13.73-11.28l.12,0"/><line class="b77c96f5-4ce8-4f15-971a-7cba28f4815d" x1="119.1" y1="76.57" x2="115.78" y2="75.63"/><line class="b77c96f5-4ce8-4f15-971a-7cba28f4815d" x1="112.43" y1="73.5" x2="109.23" y2="71.93"/><line class="b77c96f5-4ce8-4f15-971a-7cba28f4815d" x1="110.31" y1="80.61" x2="119.1" y2="76.57"/><line class="b77c96f5-4ce8-4f15-971a-7cba28f4815d" x1="110.31" y1="80.61" x2="109.23" y2="71.93"/><polyline class="b77c96f5-4ce8-4f15-971a-7cba28f4815d" points="126.9 65.7 126.89 65.64 126.16 62.23 126.11 61.98"/><path class="b44d6f69-0e21-41a3-b834-9ea56de1499e" d="M104,102.3l-6.67,7-4.21-7.67,3.55.28c1.09-8.38,1.8-11.19,8.57-15.55l2,2.91c-4.26,2.91-6.84,6.82-6.62,13.38Z"/><path class="b77c96f5-4ce8-4f15-971a-7cba28f4815d" d="M100.6,102.66c-.22-6.56,2.36-10.47,6.62-13.38l.18-.13"/><path class="b77c96f5-4ce8-4f15-971a-7cba28f4815d" d="M96.7,101.92c1.09-8.38,1.8-11.19,8.57-15.55l.1-.07"/><line class="b77c96f5-4ce8-4f15-971a-7cba28f4815d" x1="104.03" y1="102.3" x2="100.6" y2="102.66"/><line class="b77c96f5-4ce8-4f15-971a-7cba28f4815d" x1="96.7" y1="101.92" x2="93.15" y2="101.64"/><line class="b77c96f5-4ce8-4f15-971a-7cba28f4815d" x1="97.36" y1="109.31" x2="104.03" y2="102.3"/><line class="b77c96f5-4ce8-4f15-971a-7cba28f4815d" x1="97.36" y1="109.31" x2="93.15" y2="101.64"/><polyline class="b77c96f5-4ce8-4f15-971a-7cba28f4815d" points="107.25 89.33 107.22 89.28 105.27 86.37 105.13 86.17"/><path class="b44d6f69-0e21-41a3-b834-9ea56de1499e" d="M91.08,140.63l-6.77-5.53L87.7,134c-2.13-8.19-2.52-11,2.12-17.63l2.9,2c-2.86,4.29-3.79,8.88-1.13,14.88l3-1.62Z"/><path class="b77c96f5-4ce8-4f15-971a-7cba28f4815d" d="M91.59,133.25c-2.66-6-1.73-10.59,1.13-14.88a1.57,1.57,0,0,1,.12-.19"/><path class="b77c96f5-4ce8-4f15-971a-7cba28f4815d" d="M87.7,134c-2.13-8.19-2.52-11,2.12-17.63a.34.34,0,0,1,.07-.11"/><line class="b77c96f5-4ce8-4f15-971a-7cba28f4815d" x1="94.64" y1="131.63" x2="91.59" y2="133.25"/><line class="b77c96f5-4ce8-4f15-971a-7cba28f4815d" x1="87.7" y1="134.03" x2="84.31" y2="135.1"/><line class="b77c96f5-4ce8-4f15-971a-7cba28f4815d" x1="91.08" y1="140.63" x2="94.64" y2="131.63"/><line class="b77c96f5-4ce8-4f15-971a-7cba28f4815d" x1="91.08" y1="140.63" x2="84.31" y2="135.1"/><polyline class="b77c96f5-4ce8-4f15-971a-7cba28f4815d" points="92.76 118.39 92.72 118.37 89.82 116.4 89.62 116.26"/><path class="b44d6f69-0e21-41a3-b834-9ea56de1499e" d="M99,172l-8.11-3.29,2.94-2c-4.44-7.19-5.66-9.81-3.16-17.48l3.36,1c-1.48,4.93-1,9.59,3.29,14.54l2.44-2.44Z"/><path class="b77c96f5-4ce8-4f15-971a-7cba28f4815d" d="M97.27,164.77c-4.3-5-4.77-9.61-3.29-14.54A.79.79,0,0,1,94,150"/><path class="b77c96f5-4ce8-4f15-971a-7cba28f4815d" d="M93.78,166.66c-4.44-7.19-5.66-9.81-3.16-17.48l0-.11"/><line class="b77c96f5-4ce8-4f15-971a-7cba28f4815d" x1="99.71" y1="162.33" x2="97.27" y2="164.77"/><line class="b77c96f5-4ce8-4f15-971a-7cba28f4815d" x1="93.78" y1="166.66" x2="90.84" y2="168.69"/><line class="b77c96f5-4ce8-4f15-971a-7cba28f4815d" x1="98.95" y1="171.98" x2="99.71" y2="162.33"/><line class="b77c96f5-4ce8-4f15-971a-7cba28f4815d" x1="98.95" y1="171.98" x2="90.84" y2="168.69"/><polyline class="b77c96f5-4ce8-4f15-971a-7cba28f4815d" points="94.02 150.24 93.98 150.22 90.62 149.18 90.39 149.11"/><path class="b44d6f69-0e21-41a3-b834-9ea56de1499e" d="M105.41,203.11l-8.1-3.29,2.93-2c-4.43-7.21-5.65-9.83-3.16-17.49l3.37,1.05c-1.48,4.94-1,9.6,3.28,14.54l2.44-2.44Z"/><path class="b77c96f5-4ce8-4f15-971a-7cba28f4815d" d="M103.73,195.9c-4.3-4.94-4.76-9.6-3.28-14.54a1.74,1.74,0,0,1,0-.22"/><path class="b77c96f5-4ce8-4f15-971a-7cba28f4815d" d="M100.24,197.8c-4.43-7.21-5.65-9.83-3.16-17.49a.36.36,0,0,0,0-.11"/><line class="b77c96f5-4ce8-4f15-971a-7cba28f4815d" x1="106.17" y1="193.46" x2="103.73" y2="195.9"/><line class="b77c96f5-4ce8-4f15-971a-7cba28f4815d" x1="100.24" y1="197.8" x2="97.31" y2="199.82"/><line class="b77c96f5-4ce8-4f15-971a-7cba28f4815d" x1="105.41" y1="203.11" x2="106.17" y2="193.46"/><line class="b77c96f5-4ce8-4f15-971a-7cba28f4815d" x1="105.41" y1="203.11" x2="97.31" y2="199.82"/><polyline class="b77c96f5-4ce8-4f15-971a-7cba28f4815d" points="100.49 181.37 100.45 181.36 97.08 180.31 96.86 180.24"/><path class="b44d6f69-0e21-41a3-b834-9ea56de1499e" d="M113.1,229.4,105,226.1l2.93-2c-4.44-7.2-5.65-9.82-3.15-17.47l3.35,1c-1.46,4.94-1,9.62,3.29,14.58l2.44-2.44Z"/><path class="b77c96f5-4ce8-4f15-971a-7cba28f4815d" d="M111.41,222.2c-4.3-5-4.75-9.64-3.29-14.58a1.17,1.17,0,0,0,.06-.2"/><path class="b77c96f5-4ce8-4f15-971a-7cba28f4815d" d="M107.92,224.08c-4.44-7.2-5.65-9.82-3.15-17.47a.28.28,0,0,1,0-.12"/><line class="b77c96f5-4ce8-4f15-971a-7cba28f4815d" x1="113.85" y1="219.76" x2="111.41" y2="222.2"/><line class="b77c96f5-4ce8-4f15-971a-7cba28f4815d" x1="107.92" y1="224.08" x2="104.99" y2="226.1"/><line class="b77c96f5-4ce8-4f15-971a-7cba28f4815d" x1="113.1" y1="229.4" x2="113.85" y2="219.76"/><line class="b77c96f5-4ce8-4f15-971a-7cba28f4815d" x1="113.1" y1="229.4" x2="104.99" y2="226.1"/><polyline class="b77c96f5-4ce8-4f15-971a-7cba28f4815d" points="108.18 207.65 108.12 207.62 104.77 206.61 104.54 206.54"/><path class="a787a4fe-9ea8-4fc2-a98f-244aa7038b16" d="M199.32,258.51c-64.33-2.78-62.75-106.71.2-109.33v0c66.17,0,67.8-109.47,0-109.47v-.13C333.79,40.73,330.48,257.59,199.32,258.51Z"/><path class="b2607381-b119-4276-9f61-45119fcd66cf" d="M198.48,39.62h1c134.27,1.1,131,218-.2,218.88h-.84"/><path class="b2607381-b119-4276-9f61-45119fcd66cf" d="M199.52,39.76c67.8,0,66.17,109.47,0,109.47"/><path class="b2607381-b119-4276-9f61-45119fcd66cf" d="M202,258.57c-.9,0-1.78,0-2.65-.06-64.33-2.78-62.75-106.71.2-109.33.81-.05,1.62-.06,2.45-.06"/><path class="e090a4bc-334f-4e36-b077-84ba03bcc3e5" d="M186,203.19a16.42,16.42,0,1,1,16.42,16.57A16.5,16.5,0,0,1,186,203.19Z"/><path class="a2f29839-ec11-4028-a241-732f1bae4037" d="M204.78,185.74l-5.15-4.42,4.77-4.41.1,0,.2,2.49v.12c7.7-.51,9.37,1.8,10.68,9.68l-3.44.66c-.7-5.66-1.62-6.7-6.94-6.77v.08Z"/><path class="faade5a5-34c7-41d1-9d9d-d730de3790eb" d="M204.84,183.11H205c5.32.07,6.24,1.11,6.94,6.77,0,.07,0,.12,0,.2"/><path class="faade5a5-34c7-41d1-9d9d-d730de3790eb" d="M204.55,179.54s.1,0,.15,0c7.7-.51,9.37,1.8,10.68,9.68l0,.15"/><line class="faade5a5-34c7-41d1-9d9d-d730de3790eb" x1="204.78" y1="185.74" x2="205" y2="183.19"/><line class="faade5a5-34c7-41d1-9d9d-d730de3790eb" x1="204.7" y1="179.42" x2="204.5" y2="176.93"/><line class="faade5a5-34c7-41d1-9d9d-d730de3790eb" x1="199.63" y1="181.32" x2="204.78" y2="185.74"/><line class="faade5a5-34c7-41d1-9d9d-d730de3790eb" x1="199.63" y1="181.32" x2="204.4" y2="176.91"/><polyline class="faade5a5-34c7-41d1-9d9d-d730de3790eb" points="211.89 189.89 211.94 189.88 215.38 189.22 215.61 189.18"/><path class="a2f29839-ec11-4028-a241-732f1bae4037" d="M183.85,185.19c2.41-7.33,5.17-8,13-6.3l-.68,3.43c-5.51-1.45-6.81-1-8.86,3.93l.07,0,2.28,1.16-6,3.13-2.32-6.07.06-.09,2.38.75Z"/><path class="faade5a5-34c7-41d1-9d9d-d730de3790eb" d="M187.22,186.39l.07-.14c2.05-4.92,3.35-5.38,8.86-3.93l.2.06"/><path class="faade5a5-34c7-41d1-9d9d-d730de3790eb" d="M183.81,185.33a.57.57,0,0,0,0-.14c2.41-7.33,5.17-8,13-6.3,0,0,.09,0,.14,0"/><line class="faade5a5-34c7-41d1-9d9d-d730de3790eb" x1="189.64" y1="187.43" x2="187.36" y2="186.27"/><line class="faade5a5-34c7-41d1-9d9d-d730de3790eb" x1="183.74" y1="185.15" x2="181.36" y2="184.4"/><line class="faade5a5-34c7-41d1-9d9d-d730de3790eb" x1="183.62" y1="190.56" x2="189.64" y2="187.43"/><line class="faade5a5-34c7-41d1-9d9d-d730de3790eb" x1="183.62" y1="190.56" x2="181.3" y2="184.49"/><polyline class="faade5a5-34c7-41d1-9d9d-d730de3790eb" points="196.14 182.38 196.15 182.32 196.83 178.89 196.87 178.66"/><path class="a2f29839-ec11-4028-a241-732f1bae4037" d="M177.77,210.08l-5.77-3V207l2.28-1,.11,0c-3.07-7.08-1.47-9.43,5.51-13.33l1.78,3c-5.08,2.57-5.75,3.78-4,8.82l.07,0,2.48-.65Z"/><path class="faade5a5-34c7-41d1-9d9d-d730de3790eb" d="M177.69,204.57a.88.88,0,0,0-.05-.15c-1.72-5-1-6.25,4-8.82l.18-.09"/><path class="faade5a5-34c7-41d1-9d9d-d730de3790eb" d="M174.44,206.05a1.47,1.47,0,0,1-.06-.14c-3.07-7.08-1.47-9.43,5.51-13.33a.54.54,0,0,0,.13-.07"/><line class="faade5a5-34c7-41d1-9d9d-d730de3790eb" x1="180.19" y1="203.74" x2="177.71" y2="204.39"/><line class="faade5a5-34c7-41d1-9d9d-d730de3790eb" x1="174.27" y1="205.95" x2="171.99" y2="206.98"/><line class="faade5a5-34c7-41d1-9d9d-d730de3790eb" x1="177.77" y1="210.08" x2="180.19" y2="203.74"/><line class="faade5a5-34c7-41d1-9d9d-d730de3790eb" x1="177.77" y1="210.08" x2="172" y2="207.07"/><polyline class="faade5a5-34c7-41d1-9d9d-d730de3790eb" points="181.7 195.65 181.67 195.6 179.89 192.58 179.77 192.38"/><path class="a2f29839-ec11-4028-a241-732f1bae4037" d="M190.37,227.54l-6,2.53-.08-.06.67-2.41,0-.11c-7.41-2.17-8.19-4.91-6.73-12.76l3.46.57c-1.28,5.54-.75,6.82,4.2,8.74l0-.09,1.09-2.32Z"/><path class="faade5a5-34c7-41d1-9d9d-d730de3790eb" d="M186.08,224.09l-.15-.05c-5-1.92-5.48-3.2-4.2-8.74,0-.07,0-.14.05-.21"/><path class="faade5a5-34c7-41d1-9d9d-d730de3790eb" d="M185.14,227.53l-.14,0c-7.41-2.17-8.19-4.91-6.73-12.76a.8.8,0,0,0,0-.15"/><line class="faade5a5-34c7-41d1-9d9d-d730de3790eb" x1="187.05" y1="221.63" x2="185.96" y2="223.95"/><line class="faade5a5-34c7-41d1-9d9d-d730de3790eb" x1="184.96" y1="227.6" x2="184.29" y2="230.01"/><line class="faade5a5-34c7-41d1-9d9d-d730de3790eb" x1="190.37" y1="227.54" x2="187.05" y2="221.63"/><line class="faade5a5-34c7-41d1-9d9d-d730de3790eb" x1="190.37" y1="227.54" x2="184.37" y2="230.07"/><polyline class="faade5a5-34c7-41d1-9d9d-d730de3790eb" points="181.78 215.31 181.73 215.3 178.27 214.73 178.04 214.69"/><path class="a2f29839-ec11-4028-a241-732f1bae4037" d="M205.64,230.53l0-.06-1-2.35,6.64,1.41-2.08,6.17-.1,0-1.36-2.1-.06-.1c-6.52,4.13-9.09,2.9-14-3.39l2.71-2.22C199.62,232.55,200.92,233,205.64,230.53Z"/><path class="faade5a5-34c7-41d1-9d9d-d730de3790eb" d="M205.77,230.46l-.13.07c-4.72,2.49-6,2-9.34-2.61,0-.06-.08-.1-.12-.17"/><path class="faade5a5-34c7-41d1-9d9d-d730de3790eb" d="M207.74,233.45a1.48,1.48,0,0,0-.13.08c-6.52,4.13-9.09,2.9-14-3.39l-.09-.11"/><line class="faade5a5-34c7-41d1-9d9d-d730de3790eb" x1="204.57" y1="228.12" x2="205.6" y2="230.47"/><line class="faade5a5-34c7-41d1-9d9d-d730de3790eb" x1="207.67" y1="233.63" x2="209.03" y2="235.73"/><line class="faade5a5-34c7-41d1-9d9d-d730de3790eb" x1="211.21" y1="229.53" x2="204.57" y2="228.12"/><line class="faade5a5-34c7-41d1-9d9d-d730de3790eb" x1="211.21" y1="229.53" x2="209.13" y2="235.7"/><polyline class="faade5a5-34c7-41d1-9d9d-d730de3790eb" points="196.34 227.88 196.3 227.92 193.59 230.14 193.41 230.29"/><path class="a2f29839-ec11-4028-a241-732f1bae4037" d="M233,212.63l2.9,6.38L233,218c-3.11,5.85-7,9.42-15,9.18l.05-3.5c5.16,0,9.88-1.85,11.22-7.44l-2.72-1v0Z"/><path class="faade5a5-34c7-41d1-9d9d-d730de3790eb" d="M229.25,216.22c-1.34,5.59-6.06,7.46-11.22,7.44h-.24"/><path class="faade5a5-34c7-41d1-9d9d-d730de3790eb" d="M233,218c-3.11,5.85-7,9.42-15,9.18h-.13"/><polyline class="faade5a5-34c7-41d1-9d9d-d730de3790eb" points="226.15 215.07 226.53 215.21 229.25 216.22"/><line class="faade5a5-34c7-41d1-9d9d-d730de3790eb" x1="233" y1="217.98" x2="235.85" y2="219.01"/><line class="faade5a5-34c7-41d1-9d9d-d730de3790eb" x1="232.95" y1="212.63" x2="226.54" y2="215.17"/><line class="faade5a5-34c7-41d1-9d9d-d730de3790eb" x1="232.95" y1="212.63" x2="235.85" y2="219.01"/><polyline class="faade5a5-34c7-41d1-9d9d-d730de3790eb" points="218.03 223.63 218.03 223.66 217.98 227.16 217.98 227.4"/><path class="a2f29839-ec11-4028-a241-732f1bae4037" d="M247.78,192.89,252.6,198l-3-.07c-1,6.55-3.53,11.19-11.24,13.57l-1.08-3.35c4.89-1.64,8.75-4.94,8.22-10.66l-2.93-.08v0Z"/><path class="faade5a5-34c7-41d1-9d9d-d730de3790eb" d="M245.46,197.49c.53,5.72-3.33,9-8.22,10.66l-.22.08"/><path class="faade5a5-34c7-41d1-9d9d-d730de3790eb" d="M249.56,197.93c-1,6.55-3.53,11.19-11.24,13.57l-.12,0"/><polyline class="faade5a5-34c7-41d1-9d9d-d730de3790eb" points="242.15 197.39 242.53 197.41 245.46 197.49"/><line class="faade5a5-34c7-41d1-9d9d-d730de3790eb" x1="249.56" y1="197.93" x2="252.6" y2="198"/><line class="faade5a5-34c7-41d1-9d9d-d730de3790eb" x1="247.78" y1="192.89" x2="242.53" y2="197.38"/><line class="faade5a5-34c7-41d1-9d9d-d730de3790eb" x1="247.78" y1="192.89" x2="252.6" y2="198"/><polyline class="faade5a5-34c7-41d1-9d9d-d730de3790eb" points="237.22 208.11 237.24 208.15 238.31 211.5 238.39 211.72"/><path class="a2f29839-ec11-4028-a241-732f1bae4037" d="M255.45,168.36c.82,8.42.76,11.31-4.86,17.07L248,183c3.5-3.78,5.14-8.17,3.46-14.51l-3.26,1.11,4.92-8.33,5.82,6.53Z"/><path class="bb47b291-ef50-4c73-8052-483397d1229e" d="M251.49,168.52c1.68,6.34,0,10.73-3.46,14.51a.79.79,0,0,1-.14.17"/><path class="bb47b291-ef50-4c73-8052-483397d1229e" d="M255.45,168.36c.82,8.42.76,11.31-4.86,17.07,0,0-.05.07-.08.1"/><line class="bb47b291-ef50-4c73-8052-483397d1229e" x1="248.23" y1="169.63" x2="251.49" y2="168.52"/><line class="bb47b291-ef50-4c73-8052-483397d1229e" x1="255.45" y1="168.36" x2="258.97" y2="167.83"/><line class="bb47b291-ef50-4c73-8052-483397d1229e" x1="253.15" y1="161.3" x2="248.23" y2="169.63"/><line class="bb47b291-ef50-4c73-8052-483397d1229e" x1="253.15" y1="161.3" x2="258.97" y2="167.83"/><polyline class="bb47b291-ef50-4c73-8052-483397d1229e" points="248 183 248.03 183.03 250.59 185.44 250.77 185.6"/><path class="a2f29839-ec11-4028-a241-732f1bae4037" d="M251.49,157.45l-3.45-.6c.82-5.08-.24-9.65-5.13-14l-2.11,2.74-.48-9.66,8.46,2.24-2.65,2.37C251.46,147.09,253,149.54,251.49,157.45Z"/><path class="bb47b291-ef50-4c73-8052-483397d1229e" d="M242.91,142.83c4.89,4.37,6,8.94,5.13,14a2.23,2.23,0,0,1,0,.23"/><path class="bb47b291-ef50-4c73-8052-483397d1229e" d="M246.13,140.52c5.33,6.57,6.86,9,5.36,16.93a.69.69,0,0,1,0,.13"/><line class="bb47b291-ef50-4c73-8052-483397d1229e" x1="240.8" y1="145.57" x2="242.91" y2="142.83"/><line class="bb47b291-ef50-4c73-8052-483397d1229e" x1="246.13" y1="140.52" x2="248.78" y2="138.15"/><line class="bb47b291-ef50-4c73-8052-483397d1229e" x1="240.32" y1="135.91" x2="240.8" y2="145.57"/><line class="bb47b291-ef50-4c73-8052-483397d1229e" x1="240.32" y1="135.91" x2="248.78" y2="138.15"/><polyline class="bb47b291-ef50-4c73-8052-483397d1229e" points="247.99 156.84 248.04 156.85 251.49 157.45 251.73 157.49"/><path class="a2f29839-ec11-4028-a241-732f1bae4037" d="M218.49,197.68c5.57-1.14,6.54-2.16,6.2-7.46h-.08l-2.56,0,4-5.49,4.78,4.42,0,.09-2.46.4h-.12c1.09,7.64-1.06,9.48-8.81,11.42Z"/><path class="faade5a5-34c7-41d1-9d9d-d730de3790eb" d="M224.68,190.07s0,.1,0,.15c.34,5.3-.63,6.32-6.2,7.46-.06,0-.12,0-.2,0"/><path class="faade5a5-34c7-41d1-9d9d-d730de3790eb" d="M228.21,189.49s0,.1,0,.15c1.09,7.64-1.06,9.48-8.81,11.42l-.14,0"/><line class="faade5a5-34c7-41d1-9d9d-d730de3790eb" x1="222.05" y1="190.21" x2="224.61" y2="190.23"/><line class="faade5a5-34c7-41d1-9d9d-d730de3790eb" x1="228.35" y1="189.63" x2="230.81" y2="189.23"/><line class="faade5a5-34c7-41d1-9d9d-d730de3790eb" x1="226.05" y1="184.72" x2="222.05" y2="190.21"/><line class="faade5a5-34c7-41d1-9d9d-d730de3790eb" x1="226.05" y1="184.72" x2="230.83" y2="189.14"/><polyline class="faade5a5-34c7-41d1-9d9d-d730de3790eb" points="218.48 197.63 218.5 197.68 219.42 201.06 219.48 201.28"/><path class="a2f29839-ec11-4028-a241-732f1bae4037" d="M211,165.45l6.22-3.3-.87,2.91c6,2.74,9.84,6.36,10.11,14.44l-3.51.15c-.29-5.15-2.45-9.75-8.11-10.74l-.85,2.8,0,0Z"/><path class="faade5a5-34c7-41d1-9d9d-d730de3790eb" d="M214.87,168.91c5.66,1,7.82,5.59,8.11,10.74,0,.07,0,.16,0,.23"/><path class="faade5a5-34c7-41d1-9d9d-d730de3790eb" d="M216.38,165.06c6,2.74,9.84,6.36,10.11,14.44a.4.4,0,0,1,0,.11"/><polyline class="faade5a5-34c7-41d1-9d9d-d730de3790eb" points="213.9 172.07 214.02 171.71 214.87 168.91"/><line class="faade5a5-34c7-41d1-9d9d-d730de3790eb" x1="216.38" y1="165.06" x2="217.25" y2="162.15"/><line class="faade5a5-34c7-41d1-9d9d-d730de3790eb" x1="211.03" y1="165.45" x2="213.99" y2="171.69"/><line class="faade5a5-34c7-41d1-9d9d-d730de3790eb" x1="211.03" y1="165.45" x2="217.25" y2="162.15"/><polyline class="faade5a5-34c7-41d1-9d9d-d730de3790eb" points="222.92 179.66 222.98 179.65 226.49 179.5 226.71 179.48"/><path class="a2f29839-ec11-4028-a241-732f1bae4037" d="M164,190.72l-.82-8.71,3.15,1.66c4.32-7.27,6.08-9.56,14-10.89l.64,3.44c-5.06,1-9,3.56-11.37,9.67l3.29,1Z"/><path class="bb47b291-ef50-4c73-8052-483397d1229e" d="M169.62,185.89c2.39-6.11,6.31-8.68,11.37-9.67l.22,0"/><path class="bb47b291-ef50-4c73-8052-483397d1229e" d="M166.33,183.67c4.32-7.27,6.08-9.56,14-10.89a.42.42,0,0,1,.12,0"/><line class="bb47b291-ef50-4c73-8052-483397d1229e" x1="172.91" y1="186.92" x2="169.62" y2="185.89"/><line class="bb47b291-ef50-4c73-8052-483397d1229e" x1="166.33" y1="183.67" x2="163.18" y2="182.01"/><line class="bb47b291-ef50-4c73-8052-483397d1229e" x1="164" y1="190.72" x2="172.91" y2="186.92"/><line class="bb47b291-ef50-4c73-8052-483397d1229e" x1="164" y1="190.72" x2="163.18" y2="182.01"/><polyline class="bb47b291-ef50-4c73-8052-483397d1229e" points="181 176.28 180.99 176.22 180.35 172.78 180.31 172.54"/><path class="a2f29839-ec11-4028-a241-732f1bae4037" d="M164,220.46l-7.19-5,3.31-1.33c-2.79-8-3.4-10.82.71-17.75l3,1.74c-2.52,4.5-3.07,9.16,0,14.92l2.91-1.85Z"/><path class="bb47b291-ef50-4c73-8052-483397d1229e" d="M164,213.05c-3.11-5.76-2.56-10.42,0-14.92a1.24,1.24,0,0,1,.1-.2"/><path class="bb47b291-ef50-4c73-8052-483397d1229e" d="M160.16,214.14c-2.79-8-3.4-10.82.71-17.75a.67.67,0,0,1,.06-.12"/><line class="bb47b291-ef50-4c73-8052-483397d1229e" x1="166.87" y1="211.2" x2="163.96" y2="213.05"/><line class="bb47b291-ef50-4c73-8052-483397d1229e" x1="160.16" y1="214.14" x2="156.85" y2="215.47"/><line class="bb47b291-ef50-4c73-8052-483397d1229e" x1="164.04" y1="220.46" x2="166.87" y2="211.2"/><line class="bb47b291-ef50-4c73-8052-483397d1229e" x1="164.04" y1="220.46" x2="156.85" y2="215.47"/><polyline class="bb47b291-ef50-4c73-8052-483397d1229e" points="163.96 198.15 163.92 198.13 160.87 196.39 160.66 196.27"/><path class="a2f29839-ec11-4028-a241-732f1bae4037" d="M189.28,169.92l1.95,2.18,0,0-6.86-.73.4-7,2,2.26c5.48-3.74,10.56-5.12,17.59-1.14l-1.7,3.08C198.11,166.14,193.07,165.61,189.28,169.92Z"/><path class="faade5a5-34c7-41d1-9d9d-d730de3790eb" d="M189.28,169.92c3.79-4.31,8.83-3.78,13.39-1.35l.21.11"/><path class="faade5a5-34c7-41d1-9d9d-d730de3790eb" d="M186.78,166.63c5.48-3.74,10.56-5.12,17.59-1.14l.1.06"/><polyline class="faade5a5-34c7-41d1-9d9d-d730de3790eb" points="191.48 172.39 191.23 172.1 189.28 169.92"/><line class="faade5a5-34c7-41d1-9d9d-d730de3790eb" x1="186.78" y1="166.63" x2="184.74" y2="164.37"/><line class="faade5a5-34c7-41d1-9d9d-d730de3790eb" x1="184.34" y1="171.39" x2="191.2" y2="172.12"/><line class="faade5a5-34c7-41d1-9d9d-d730de3790eb" x1="184.34" y1="171.39" x2="184.74" y2="164.37"/><polyline class="faade5a5-34c7-41d1-9d9d-d730de3790eb" points="202.65 168.63 202.67 168.57 204.37 165.49 204.48 165.28"/><path class="a2f29839-ec11-4028-a241-732f1bae4037" d="M180.17,246.67,171.58,245l2.48-2.56c-5.76-6.19-7.46-8.53-6.49-16.52l3.48.35c-.48,5.14.88,9.62,6.07,13.64l1.92-2.86Z"/><path class="bb47b291-ef50-4c73-8052-483397d1229e" d="M177.12,239.92c-5.19-4-6.55-8.5-6.07-13.64,0-.07,0-.15,0-.22"/><path class="bb47b291-ef50-4c73-8052-483397d1229e" d="M174.06,242.45c-5.76-6.19-7.46-8.53-6.49-16.52a.56.56,0,0,1,0-.13"/><line class="bb47b291-ef50-4c73-8052-483397d1229e" x1="179.04" y1="237.06" x2="177.12" y2="239.92"/><line class="bb47b291-ef50-4c73-8052-483397d1229e" x1="174.06" y1="242.45" x2="171.58" y2="245.01"/><line class="bb47b291-ef50-4c73-8052-483397d1229e" x1="180.17" y1="246.67" x2="179.04" y2="237.06"/><line class="bb47b291-ef50-4c73-8052-483397d1229e" x1="180.17" y1="246.67" x2="171.58" y2="245.01"/><polyline class="bb47b291-ef50-4c73-8052-483397d1229e" points="171.1 226.29 171.05 226.28 167.57 225.93 167.32 225.9"/><path class="a2f29839-ec11-4028-a241-732f1bae4037" d="M210,249.24l-6.39,6L203,251.7c-8.4,1-11.28,1.05-17.21-4.41l2.35-2.63c3.88,3.4,8.3,4.93,14.61,3.09l-1.21-3.23Z"/><path class="bb47b291-ef50-4c73-8052-483397d1229e" d="M202.71,247.75c-6.31,1.84-10.73.31-14.61-3.09a1.24,1.24,0,0,1-.18-.14"/><path class="bb47b291-ef50-4c73-8052-483397d1229e" d="M203,251.7c-8.4,1-11.28,1.05-17.21-4.41l-.08-.08"/><line class="bb47b291-ef50-4c73-8052-483397d1229e" x1="201.5" y1="244.52" x2="202.71" y2="247.75"/><line class="bb47b291-ef50-4c73-8052-483397d1229e" x1="202.96" y1="251.7" x2="203.57" y2="255.23"/><line class="bb47b291-ef50-4c73-8052-483397d1229e" x1="209.96" y1="249.24" x2="201.5" y2="244.52"/><line class="bb47b291-ef50-4c73-8052-483397d1229e" x1="209.96" y1="249.24" x2="203.57" y2="255.23"/><polyline class="bb47b291-ef50-4c73-8052-483397d1229e" points="188.14 244.62 188.1 244.66 185.75 247.29 185.6 247.45"/><path class="a2f29839-ec11-4028-a241-732f1bae4037" d="M234.94,237.76l-2.29,8.44-2.36-2.66c-6.6,5.29-9,6.82-16.95,5.27l.6-3.46c5.09.86,9.66-.16,14.05-5l-2.72-2.12Z"/><path class="bb47b291-ef50-4c73-8052-483397d1229e" d="M228,240.31c-4.39,4.88-9,5.9-14.05,5l-.22,0"/><path class="bb47b291-ef50-4c73-8052-483397d1229e" d="M230.29,243.54c-6.6,5.29-9,6.82-16.95,5.27l-.13,0"/><line class="bb47b291-ef50-4c73-8052-483397d1229e" x1="225.27" y1="238.19" x2="227.99" y2="240.31"/><line class="bb47b291-ef50-4c73-8052-483397d1229e" x1="230.29" y1="243.54" x2="232.65" y2="246.2"/><line class="bb47b291-ef50-4c73-8052-483397d1229e" x1="234.94" y1="237.76" x2="225.27" y2="238.19"/><line class="bb47b291-ef50-4c73-8052-483397d1229e" x1="234.94" y1="237.76" x2="232.65" y2="246.2"/><polyline class="bb47b291-ef50-4c73-8052-483397d1229e" points="213.96 245.31 213.94 245.35 213.34 248.81 213.29 249.05"/><path class="a2f29839-ec11-4028-a241-732f1bae4037" d="M256.27,217l1.06,8.67-3.2-1.56c-4.11,7.39-5.82,9.73-13.72,11.27l-.72-3.42c5-1.13,8.87-3.81,11.1-10l-3.32-.94Z"/><path class="bb47b291-ef50-4c73-8052-483397d1229e" d="M250.79,222c-2.23,6.17-6.07,8.85-11.1,10l-.22.05"/><path class="bb47b291-ef50-4c73-8052-483397d1229e" d="M254.13,224.13c-4.11,7.39-5.82,9.73-13.72,11.27a.24.24,0,0,1-.12,0"/><line class="bb47b291-ef50-4c73-8052-483397d1229e" x1="247.47" y1="221.06" x2="250.79" y2="222"/><line class="bb47b291-ef50-4c73-8052-483397d1229e" x1="254.13" y1="224.13" x2="257.33" y2="225.69"/><line class="bb47b291-ef50-4c73-8052-483397d1229e" x1="256.27" y1="217.02" x2="247.47" y2="221.06"/><line class="bb47b291-ef50-4c73-8052-483397d1229e" x1="256.27" y1="217.02" x2="257.33" y2="225.69"/><polyline class="bb47b291-ef50-4c73-8052-483397d1229e" points="239.68 231.93 239.69 231.98 240.41 235.4 240.46 235.64"/><path class="a2f29839-ec11-4028-a241-732f1bae4037" d="M269.23,188.29l4.2,7.67-3.55-.28c-1.09,8.39-1.8,11.19-8.57,15.55l-1.95-2.9c4.26-2.92,6.84-6.83,6.62-13.38l-3.43.35Z"/><path class="bb47b291-ef50-4c73-8052-483397d1229e" d="M266,195c.22,6.55-2.36,10.46-6.62,13.38l-.18.12"/><path class="bb47b291-ef50-4c73-8052-483397d1229e" d="M269.88,195.68c-1.09,8.39-1.8,11.19-8.57,15.55a.44.44,0,0,1-.1.08"/><line class="bb47b291-ef50-4c73-8052-483397d1229e" x1="262.55" y1="195.3" x2="265.98" y2="194.95"/><line class="bb47b291-ef50-4c73-8052-483397d1229e" x1="269.88" y1="195.68" x2="273.43" y2="195.96"/><line class="bb47b291-ef50-4c73-8052-483397d1229e" x1="269.23" y1="188.29" x2="262.55" y2="195.3"/><line class="bb47b291-ef50-4c73-8052-483397d1229e" x1="269.23" y1="188.29" x2="273.43" y2="195.96"/><polyline class="bb47b291-ef50-4c73-8052-483397d1229e" points="259.33 208.28 259.36 208.33 261.31 211.23 261.45 211.44"/><path class="a2f29839-ec11-4028-a241-732f1bae4037" d="M278.85,163.61c2.14,8.19,2.53,11-2.11,17.63l-2.91-2c2.87-4.29,3.79-8.88,1.13-14.88l-3,1.62,3.55-9,6.78,5.53Z"/><path class="bb47b291-ef50-4c73-8052-483397d1229e" d="M275,164.39c2.66,6,1.74,10.59-1.13,14.88a.86.86,0,0,1-.11.19"/><path class="bb47b291-ef50-4c73-8052-483397d1229e" d="M278.85,163.61c2.14,8.19,2.53,11-2.11,17.63a.34.34,0,0,1-.07.11"/><line class="bb47b291-ef50-4c73-8052-483397d1229e" x1="271.92" y1="166.01" x2="274.96" y2="164.39"/><line class="bb47b291-ef50-4c73-8052-483397d1229e" x1="278.85" y1="163.61" x2="282.25" y2="162.54"/><line class="bb47b291-ef50-4c73-8052-483397d1229e" x1="275.47" y1="157.01" x2="271.92" y2="166.01"/><line class="bb47b291-ef50-4c73-8052-483397d1229e" x1="275.47" y1="157.01" x2="282.25" y2="162.54"/><polyline class="bb47b291-ef50-4c73-8052-483397d1229e" points="273.8 179.25 273.83 179.27 276.74 181.24 276.95 181.39"/><path class="a2f29839-ec11-4028-a241-732f1bae4037" d="M272.8,131c4.45,7.19,5.66,9.82,3.16,17.47l-3.36-1c1.47-4.93,1-9.62-3.28-14.57l-2.45,2.45.76-9.65,8.1,3.3Z"/><path class="bb47b291-ef50-4c73-8052-483397d1229e" d="M269.32,132.85c4.3,5,4.75,9.64,3.28,14.57,0,.07,0,.14-.05.2"/><path class="bb47b291-ef50-4c73-8052-483397d1229e" d="M272.8,131c4.45,7.19,5.66,9.82,3.16,17.47a.65.65,0,0,1,0,.13"/><line class="bb47b291-ef50-4c73-8052-483397d1229e" x1="266.87" y1="135.3" x2="269.32" y2="132.85"/><line class="bb47b291-ef50-4c73-8052-483397d1229e" x1="272.8" y1="130.97" x2="275.73" y2="128.95"/><line class="bb47b291-ef50-4c73-8052-483397d1229e" x1="267.63" y1="125.65" x2="266.87" y2="135.3"/><line class="bb47b291-ef50-4c73-8052-483397d1229e" x1="267.63" y1="125.65" x2="275.73" y2="128.95"/><polyline class="bb47b291-ef50-4c73-8052-483397d1229e" points="272.55 147.4 272.6 147.42 275.96 148.44 276.19 148.51"/><path class="a2f29839-ec11-4028-a241-732f1bae4037" d="M266.13,116.28c1.48-4.94,1-9.6-3.28-14.55l-2.44,2.44.75-9.64,8.11,3.29-2.93,2c4.44,7.19,5.66,9.81,3.16,17.48Z"/><path class="bb47b291-ef50-4c73-8052-483397d1229e" d="M262.85,101.73c4.3,5,4.76,9.61,3.28,14.55a1.74,1.74,0,0,1-.05.22"/><path class="bb47b291-ef50-4c73-8052-483397d1229e" d="M266.34,99.84c4.44,7.19,5.66,9.81,3.16,17.48l0,.11"/><line class="bb47b291-ef50-4c73-8052-483397d1229e" x1="260.41" y1="104.17" x2="262.85" y2="101.73"/><line class="bb47b291-ef50-4c73-8052-483397d1229e" x1="266.34" y1="99.84" x2="269.27" y2="97.82"/><line class="bb47b291-ef50-4c73-8052-483397d1229e" x1="261.16" y1="94.53" x2="260.41" y2="104.17"/><line class="bb47b291-ef50-4c73-8052-483397d1229e" x1="261.16" y1="94.53" x2="269.27" y2="97.82"/><polyline class="bb47b291-ef50-4c73-8052-483397d1229e" points="266.09 116.27 266.13 116.28 269.5 117.32 269.72 117.39"/><path class="a2f29839-ec11-4028-a241-732f1bae4037" d="M258.66,73.55c4.43,7.21,5.65,9.83,3.15,17.48l-3.35-1c1.47-4.94,1-9.6-3.29-14.55l-2.44,2.42.75-9.62,8.11,3.29Z"/><path class="bb47b291-ef50-4c73-8052-483397d1229e" d="M255.17,75.45c4.29,5,4.76,9.61,3.29,14.55,0,.06,0,.14-.06.22"/><path class="bb47b291-ef50-4c73-8052-483397d1229e" d="M258.66,73.55c4.43,7.21,5.65,9.83,3.15,17.48a.93.93,0,0,1,0,.13"/><line class="bb47b291-ef50-4c73-8052-483397d1229e" x1="252.73" y1="77.87" x2="255.17" y2="75.45"/><line class="bb47b291-ef50-4c73-8052-483397d1229e" x1="258.66" y1="73.55" x2="261.59" y2="71.54"/><line class="bb47b291-ef50-4c73-8052-483397d1229e" x1="253.48" y1="68.25" x2="252.73" y2="77.87"/><line class="bb47b291-ef50-4c73-8052-483397d1229e" x1="253.48" y1="68.25" x2="261.59" y2="71.54"/><polyline class="bb47b291-ef50-4c73-8052-483397d1229e" points="258.41 89.98 258.46 90 261.81 91.03 262.04 91.11"/><text class="bbf05358-473d-4335-814c-f02506a779a4" transform="translate(99.69 305.96)">Sift-PULs </text><path class="b46e48ba-48b9-43f9-a44b-da7d7fd733ca" d="M1936.63,21c85.11,1.67,727.85,31.9,830.65,221.58"/><path class="a7cb7e90-1854-499e-86e2-65d9af984ea2" d="M2736.1,81.87c22.21,5.13,60.29,14.81,128,16.52"/><line class="fdcf19bf-f345-495c-bf3d-ab9ea79745a9" x1="2809.15" y1="60.23" x2="2736.1" y2="81.87"/><line class="fdcf19bf-f345-495c-bf3d-ab9ea79745a9" x1="2809.15" y1="60.23" x2="2864.35" y2="97.25"/><line class="fdcf19bf-f345-495c-bf3d-ab9ea79745a9" x1="2789.13" y1="71.05" x2="2767.48" y2="79.03"/><line class="fdcf19bf-f345-495c-bf3d-ab9ea79745a9" x1="2796.71" y1="76.75" x2="2784.26" y2="84.72"/><line class="fdcf19bf-f345-495c-bf3d-ab9ea79745a9" x1="2815.1" y1="76.75" x2="2820.52" y2="88.14"/><line class="fdcf19bf-f345-495c-bf3d-ab9ea79745a9" x1="2824.3" y1="75.61" x2="2835.13" y2="90.99"/><line class="fdcf19bf-f345-495c-bf3d-ab9ea79745a9" x1="2824.3" y1="96.68" x2="2821.06" y2="114.91"/><line class="fdcf19bf-f345-495c-bf3d-ab9ea79745a9" x1="2834.04" y1="97.82" x2="2826.47" y2="114.34"/><line class="fdcf19bf-f345-495c-bf3d-ab9ea79745a9" x1="2821.06" y1="114.91" x2="2826.47" y2="114.34"/><path class="fdcf19bf-f345-495c-bf3d-ab9ea79745a9" d="M2826.47,114.34c19.48,1.14,2.16,17.66-3.79,17.09"/><path class="fdcf19bf-f345-495c-bf3d-ab9ea79745a9" d="M2829.72,121.18c0,1.89-4.36,3.42-9.75,3.42"/><path class="fdcf19bf-f345-495c-bf3d-ab9ea79745a9" d="M2797.79,103.52c12.44-9.68,21.2,1.13,20.56.57"/><path class="fdcf19bf-f345-495c-bf3d-ab9ea79745a9" d="M2799.41,106.37c12.45-5.7,19.58,0,18.94-.57"/><path class="b6a28901-126e-4656-94ea-b5c3bc53d4f1" d="M2788.05,105.23c0-5.67-9.68-10.25-21.65-10.25"/><path class="fdcf19bf-f345-495c-bf3d-ab9ea79745a9" d="M2781,91.56c-4.87,11.39-3.79,19.36-4.33,22.21"/><path class="fdcf19bf-f345-495c-bf3d-ab9ea79745a9" d="M2784.26,128c-3.79-5.12,8.66-12.53,4.87-21.07"/><path class="fdcf19bf-f345-495c-bf3d-ab9ea79745a9" d="M2799.41,116.05c0,2.21,7,4.56,10.28,1.14"/><path class="fdcf19bf-f345-495c-bf3d-ab9ea79745a9" d="M2776.14,112.64c0,2.2,7,4.55,10.28,1.13"/><path class="fdcf19bf-f345-495c-bf3d-ab9ea79745a9" d="M2776.14,115.48c-2.37,1.5-3.11,25.35-2.37,28.2"/><path class="fdcf19bf-f345-495c-bf3d-ab9ea79745a9" d="M2821.06,132c-7,5.7-9.2,10.82-19.49,14.81"/><path class="fdcf19bf-f345-495c-bf3d-ab9ea79745a9" d="M2774,148.81c0-17.77,17.86-32.76,27.59-2"/><path class="fdcf19bf-f345-495c-bf3d-ab9ea79745a9" d="M2774.38,151.94c.54-6.27,14.12-38,21.51-4.63"/><path class="fdcf19bf-f345-495c-bf3d-ab9ea79745a9" d="M2774.52,161.62c5.41-23.92,15.37-18.15,21.1-3.41"/><line class="fdcf19bf-f345-495c-bf3d-ab9ea79745a9" x1="2795.89" y1="145.81" x2="2795.62" y2="158.21"/><path class="fdcf19bf-f345-495c-bf3d-ab9ea79745a9" d="M2774.93,156.21c0,17.64,6.28,29.34,9.87,29.34"/><path class="fdcf19bf-f345-495c-bf3d-ab9ea79745a9" d="M2795.89,157.14a211.11,211.11,0,0,0-11.09,28.41"/><line class="fdcf19bf-f345-495c-bf3d-ab9ea79745a9" x1="2801.57" y1="146.81" x2="2800.49" y2="166.75"/><line class="fdcf19bf-f345-495c-bf3d-ab9ea79745a9" x1="2795.69" y1="155.21" x2="2800.49" y2="166.75"/><line class="fdcf19bf-f345-495c-bf3d-ab9ea79745a9" x1="2811.32" y1="141.69" x2="2812.4" y2="158.21"/><path class="fdcf19bf-f345-495c-bf3d-ab9ea79745a9" d="M2814,152.51c4.33,8-40.58,42.72-51.41,70.63"/><path class="fdcf19bf-f345-495c-bf3d-ab9ea79745a9" d="M2815.1,152.79c8.66,19.37-34.63,51-48.7,77.19"/><path class="fdcf19bf-f345-495c-bf3d-ab9ea79745a9" d="M2816.19,155.93c21.64,51.27,25.43,108.8,37.88,112.22"/><path class="fdcf19bf-f345-495c-bf3d-ab9ea79745a9" d="M2775.06,159.92c-11.91,22.21-27.6,38.16-27.06,51.26"/><path class="fdcf19bf-f345-495c-bf3d-ab9ea79745a9" d="M2772.35,165.61c0,17.95,2.72,29.62,5.41,29.62"/><path class="fdcf19bf-f345-495c-bf3d-ab9ea79745a9" d="M2811.32,208.9c3.24,15.95-2.43,29.62-5.41,29.62"/><path class="fdcf19bf-f345-495c-bf3d-ab9ea79745a9" d="M2796.17,241.94c0-4,28.13-.57,35.71,15.38"/><path class="fdcf19bf-f345-495c-bf3d-ab9ea79745a9" d="M2743.67,222.58c-15.15,17.09-13,31.32-16.23,35.88"/><path class="fdcf19bf-f345-495c-bf3d-ab9ea79745a9" d="M2796.17,241.94c14.6,13.11,13.52,32.47,13.52,32.47"/><path class="fdcf19bf-f345-495c-bf3d-ab9ea79745a9" d="M2793.46,252.76c14.61,13.11,16.23,21.65,16.23,21.65"/><path class="fdcf19bf-f345-495c-bf3d-ab9ea79745a9" d="M2728.93,257.75c-56.83,27.34,13,79.32,28.81,79.32"/><path class="fdcf19bf-f345-495c-bf3d-ab9ea79745a9" d="M2859.48,296.06c9.2,25.06-24.35,45-101.74,41"/><path class="fdcf19bf-f345-495c-bf3d-ab9ea79745a9" d="M2826.47,318.84c-18.94,7.41-22.19,13.68-73.6,11.4"/><path class="fdcf19bf-f345-495c-bf3d-ab9ea79745a9" d="M2858.94,294.35c-7.58,4.56-15.9,20.86-72.18,19.15"/><path class="fdcf19bf-f345-495c-bf3d-ab9ea79745a9" d="M2781.55,240.23c2.17,7.41,13.87,59.6,5.21,73.27"/><path class="fdcf19bf-f345-495c-bf3d-ab9ea79745a9" d="M2826.47,318.84c-18.94,7.41-13.53,7.41-41.67,6.84"/><path class="fdcf19bf-f345-495c-bf3d-ab9ea79745a9" d="M2852.44,266.44c8.66,13.67,3.64,26.77,8.12,26.77"/><path class="fdcf19bf-f345-495c-bf3d-ab9ea79745a9" d="M2755,310.3c0,1.89,14.76,3.42,33,3.42"/><path class="fdcf19bf-f345-495c-bf3d-ab9ea79745a9" d="M2774.52,240.8c0,38.1-5.49,62.66-10.28,62.66"/><path class="fdcf19bf-f345-495c-bf3d-ab9ea79745a9" d="M2771.81,241.94c-4.33,37.6-13,64.94-15.15,67.79"/><path class="fdcf19bf-f345-495c-bf3d-ab9ea79745a9" d="M2758,235.16c-18.94,9.11-12.07,56.11-28.82,56.11"/><path class="fdcf19bf-f345-495c-bf3d-ab9ea79745a9" d="M2745.23,303.13c-6.49.57-12.71-6.34-15.42-13.75"/><path class="fdcf19bf-f345-495c-bf3d-ab9ea79745a9" d="M2761,238.29c-21.18,33.61-16.88,63.9-18.54,66.08"/><path class="fdcf19bf-f345-495c-bf3d-ab9ea79745a9" d="M2771.81,241.94c0-1.58,3.46-1.71,9.74-1.71"/><path class="fdcf19bf-f345-495c-bf3d-ab9ea79745a9" d="M2781.55,240.23c0,3.15,8.93,5.56,14.62,1.71"/><path class="fdcf19bf-f345-495c-bf3d-ab9ea79745a9" d="M2767.28,241.94c-22.73,40.34-26.49,56.45-22.05,61.19"/><path class="fdcf19bf-f345-495c-bf3d-ab9ea79745a9" d="M2773.77,124.67c0,18.89.42,34.39,1,34.39"/><line class="e465ce26-80a0-4dfe-8e9f-c81a034c0d63" x1="1941.81" y1="70.82" x2="1941.81" y2="21.24"/><path class="ffebdecb-6e26-4195-af26-f04987b7d44a" d="M558,268.49c3.62,22.43-11.89,14.45-3.28,31.54"/><path class="b0101143-c9d8-4c75-b9ef-ed1ddd63bc0f" d="M559.23,262.11c-18.31,63.18-100,16.42-79.1-36.82l4.16,1.09c4.67,46.19,37,45.77,48.06,30.68,4.4-1.81,16-6.44,20.87-4C557.74,254.58,559.23,262.11,559.23,262.11Z"/><path class="b0101143-c9d8-4c75-b9ef-ed1ddd63bc0f" d="M488.78,212.85l.1.06c9.15-6.07,20.37,3.89,26.82-3l.32.32c-6.3,15.73-19.55,3.29-31.73,16.2l-4.16-1.09c-5.38-23.68,22.41-31.38,22.28-30.36l0,0C496.12,202.23,494.65,203.48,488.78,212.85Z"/><path class="adfa06e3-20a0-47ee-8949-17d782ee668c" d="M559.23,262.11c-18.31,63.18-100,16.42-79.1-36.82"/><path class="adfa06e3-20a0-47ee-8949-17d782ee668c" d="M532.35,257.06c-11,15.09-43.39,15.51-48.06-30.68"/><path class="adfa06e3-20a0-47ee-8949-17d782ee668c" d="M532.35,257.06c4.4-1.81,16-6.44,20.87-4,.15.07.29.15.43.23"/><path class="adfa06e3-20a0-47ee-8949-17d782ee668c" d="M559.23,262.11s-1.49-7.53-6-9.07a5.63,5.63,0,0,0-1.18-.26"/><path class="adfa06e3-20a0-47ee-8949-17d782ee668c" d="M484.29,226.38c12.18-12.91,25.43-.47,31.73-16.2"/><path class="adfa06e3-20a0-47ee-8949-17d782ee668c" d="M488.88,212.91c9.15-6.07,20.37,3.89,26.82-3a5,5,0,0,0,.52-.58"/><path class="b2826462-d9ed-4f26-ae05-8d441d2bc8e0" d="M488.27,213.69l.51-.84c5.87-9.37,7.34-10.62,13.65-17.9"/><path class="adfa06e3-20a0-47ee-8949-17d782ee668c" d="M480.13,225.29c-5.38-23.68,22.41-31.38,22.28-30.36"/><path class="ffebdecb-6e26-4195-af26-f04987b7d44a" d="M522.34,262.47c6.37-16.23,22.89-13.84,25.48-10.27"/><path class="a4c5cb60-a153-47a5-b81a-a2d2640a0224" d="M517,281.87l-.11-.06S516.93,281.84,517,281.87Z"/><path class="a4c5cb60-a153-47a5-b81a-a2d2640a0224" d="M526.31,280.16a2.74,2.74,0,0,0-.43-.08A.38.38,0,0,1,526.31,280.16Z"/><path class="a4c5cb60-a153-47a5-b81a-a2d2640a0224" d="M516.84,281.81l.11.06S516.88,281.83,516.84,281.81Zm-15.49-3.18c-7.37-3.68-20.89-13.55-22.94-34.18,5,31,37.4,33.53,47.47,35.63-1.47.32-6.27,4.64-14.79,8.77,2.12-3.66,4.57-6.9,5.6-7-1.58-.09-7.21,3.42-13.46,8.46,2.91-5.9,4.49-8.94,5.82-10-3.08-.17-8.85,0-12.93,1.95A7,7,0,0,1,501.35,278.63Z"/><path class="bfeceda6-a486-4b7f-9a0b-20a91f793b6b" d="M511.09,288.85c8.52-4.13,13.32-8.45,14.79-8.77a.38.38,0,0,1,.43.08"/><path class="bfeceda6-a486-4b7f-9a0b-20a91f793b6b" d="M526.31,280.16a2.74,2.74,0,0,0-.43-.08c-10.07-2.1-42.43-4.63-47.47-35.63"/><path class="bfeceda6-a486-4b7f-9a0b-20a91f793b6b" d="M516.84,281.81s.09,0,.11.06"/><path class="bfeceda6-a486-4b7f-9a0b-20a91f793b6b" d="M511.09,288.85c2.12-3.66,4.57-6.9,5.6-7"/><path class="bfeceda6-a486-4b7f-9a0b-20a91f793b6b" d="M503.23,290.27c6.25-5,11.88-8.55,13.46-8.46h.15l.11.06a.27.27,0,0,1,.1.08"/><path class="bfeceda6-a486-4b7f-9a0b-20a91f793b6b" d="M503.23,290.27c2.91-5.9,4.49-8.94,5.82-10"/><path class="bfeceda6-a486-4b7f-9a0b-20a91f793b6b" d="M509.05,280.25c-3.08-.17-8.85,0-12.93,1.95"/><path class="bfeceda6-a486-4b7f-9a0b-20a91f793b6b" d="M496.12,282.2a7,7,0,0,1,5.23-3.57c.38,0,.64,0,.72.15"/><path class="bfeceda6-a486-4b7f-9a0b-20a91f793b6b" d="M502.94,279.39c-.49-.22-1-.48-1.59-.76-7.37-3.68-20.89-13.55-22.94-34.18"/><path class="b46a9704-05bd-4ccf-a550-79a5318dc453" d="M551.11,268a1.19,1.19,0,0,1,1.73.05,1.35,1.35,0,0,1-.41,1.77,1.18,1.18,0,0,1-1.72-.05A1.33,1.33,0,0,1,551.11,268Z"/><path class="b46a9704-05bd-4ccf-a550-79a5318dc453" d="M542.67,257.94a1.19,1.19,0,0,1,1.73.06,1.33,1.33,0,0,1-.4,1.76,1.19,1.19,0,0,1-1.73-.05A1.34,1.34,0,0,1,542.67,257.94Z"/><path class="a4c5cb60-a153-47a5-b81a-a2d2640a0224" d="M548.36,282.76C550,314.45,522.15,309,518,325.11c3.17-21.35,21.82-11.84,22.91-36.21,1-1.09,5-2.17,7.36-6.14Z"/><path class="bfeceda6-a486-4b7f-9a0b-20a91f793b6b" d="M518,325.11c4.18-16.15,32-10.66,30.39-42.35,0-.26,0-.51,0-.77"/><path class="bfeceda6-a486-4b7f-9a0b-20a91f793b6b" d="M518,325.11c3.17-21.35,21.82-11.84,22.91-36.21,0-.46,0-.92,0-1.4"/><path class="bfeceda6-a486-4b7f-9a0b-20a91f793b6b" d="M548.24,282.76c-2.37,4-6.37,5.05-7.36,6.14a.63.63,0,0,0-.21.33"/><path class="a4c5cb60-a153-47a5-b81a-a2d2640a0224" d="M534.24,256.27c-8-.75-20.2-3.65-31,5.05l0-.05c11.42-17.7,25.84-8.37,34.13-7C535.22,255,534.56,255.54,534.24,256.27Z"/><path class="bfeceda6-a486-4b7f-9a0b-20a91f793b6b" d="M538.43,254.4a10.38,10.38,0,0,1-1.06-.15c-8.29-1.35-22.71-10.68-34.13,7"/><path class="bfeceda6-a486-4b7f-9a0b-20a91f793b6b" d="M535.06,256.35c-.27,0-.55,0-.82-.08-8-.75-20.2-3.65-31,5.05l-.49.41"/><path class="bfeceda6-a486-4b7f-9a0b-20a91f793b6b" d="M538.2,254l-.83.28c-2.15.79-2.81,1.29-3.13,2a5.47,5.47,0,0,0-.2.61"/><path class="bd20c884-d243-43ec-af7b-49c96cf5e76c" d="M736.85,250.85c-13.79,17.52,3.43,18.77-12.14,29"/><path class="bba1654e-4f5e-42a8-98c1-c51816aa688f" d="M824.75,254.4l-4.12-1.24c-26,37.53-53.82,20.14-56.19,1.27-3-3.88-10.76-14-16.16-14.47-4.65-1-9.51,4.69-9.51,4.69C724.6,309,817.55,311.5,824.75,254.4Z"/><path class="bba1654e-4f5e-42a8-98c1-c51816aa688f" d="M823.06,239.07c-5-10.07-19.49-7.35-21.78-16.75l-.43.1c-2,16.94,15.37,13.14,19.78,30.74l4.12,1.24c15.83-17.6-4.32-38.78-4.85-38.05v0h0c2,9.64,2.69,11.49,3.32,22.69Z"/><path class="adfa06e3-20a0-47ee-8949-17d782ee668c" d="M738.77,244.65c-14.17,64.36,78.78,66.85,86,9.75"/><path class="adfa06e3-20a0-47ee-8949-17d782ee668c" d="M764.44,254.43c2.37,18.87,30.21,36.26,56.19-1.27"/><path class="adfa06e3-20a0-47ee-8949-17d782ee668c" d="M764.44,254.43c-3-3.88-10.76-14-16.16-14.47l-.48,0"/><path class="adfa06e3-20a0-47ee-8949-17d782ee668c" d="M738.77,244.65s4.86-5.73,9.51-4.69a5.43,5.43,0,0,1,1.15.4"/><path class="adfa06e3-20a0-47ee-8949-17d782ee668c" d="M820.63,253.16c-4.41-17.6-21.8-13.8-19.78-30.74"/><path class="adfa06e3-20a0-47ee-8949-17d782ee668c" d="M823.06,239.07c-5-10.07-19.49-7.35-21.78-16.75a5.59,5.59,0,0,1-.18-.78"/><path class="b2826462-d9ed-4f26-ae05-8d441d2bc8e0" d="M823.21,240.07c0-.34,0-.68,0-1-.63-11.2-1.31-13-3.32-22.69"/><path class="adfa06e3-20a0-47ee-8949-17d782ee668c" d="M824.75,254.4c15.83-17.6-4.32-38.78-4.85-38.05v0"/><path class="bd20c884-d243-43ec-af7b-49c96cf5e76c" d="M770.55,264.38c2.2-17.41-13.24-24-17.18-22.3"/><path class="eb613b0c-f64e-4c3e-a79f-51ddb3f45b45" d="M766,284a.28.28,0,0,1,.13,0S766,284,766,284Z"/><path class="eb613b0c-f64e-4c3e-a79f-51ddb3f45b45" d="M758.7,277.62a2.17,2.17,0,0,1,.4.15C759,277.61,758.82,277.57,758.7,277.62Z"/><path class="eb613b0c-f64e-4c3e-a79f-51ddb3f45b45" d="M766,284s.09,0,.13,0A.28.28,0,0,0,766,284Zm15.09,5.41c8.14.68,24.51-.77,36.06-17.53-19.09,24.19-48.32,9.35-58,5.87,1.13,1.05,3.24,7.31,8.65,15.38-.09-4.29-.68-8.38-1.51-9,1.41.75,4.63,6.75,7.64,14.4.28-6.64.36-10.1-.28-11.73,2.76,1.46,7.66,4.67,10.27,8.49A7.63,7.63,0,0,0,781.08,289.43Z"/><path class="a554bc56-8b07-410f-81b1-fff94a636d6a" d="M767.75,293.15c-5.41-8.07-7.52-14.33-8.65-15.38-.15-.16-.28-.2-.4-.15"/><path class="a554bc56-8b07-410f-81b1-fff94a636d6a" d="M758.7,277.62a2.17,2.17,0,0,1,.4.15c9.72,3.48,38.95,18.32,58-5.87"/><path class="a554bc56-8b07-410f-81b1-fff94a636d6a" d="M766.12,284s-.1,0-.13,0"/><path class="a554bc56-8b07-410f-81b1-fff94a636d6a" d="M767.75,293.15c-.09-4.29-.68-8.38-1.51-9"/><path class="a554bc56-8b07-410f-81b1-fff94a636d6a" d="M773.88,298.51c-3-7.65-6.23-13.65-7.64-14.4a.28.28,0,0,0-.12-.08.28.28,0,0,0-.13,0,.2.2,0,0,0-.13,0"/><path class="a554bc56-8b07-410f-81b1-fff94a636d6a" d="M773.88,298.51c.28-6.64.36-10.1-.28-11.73"/><path class="a554bc56-8b07-410f-81b1-fff94a636d6a" d="M773.6,286.78c2.76,1.46,7.66,4.67,10.27,8.49"/><path class="a554bc56-8b07-410f-81b1-fff94a636d6a" d="M783.87,295.27a7.63,7.63,0,0,0-2.79-5.84c-.33-.23-.59-.33-.73-.27"/><path class="a554bc56-8b07-410f-81b1-fff94a636d6a" d="M779.3,289.24c.54.07,1.13.15,1.78.19,8.14.68,24.51-.77,36.06-17.53"/><path class="fe39b0f2-eaa3-459b-90b1-be70c7b42a8d" d="M743,254a1.23,1.23,0,0,0-1.52-.87,1.33,1.33,0,0,0-.49,1.75,1.21,1.21,0,0,0,1.52.86A1.32,1.32,0,0,0,743,254Z"/><path class="fe39b0f2-eaa3-459b-90b1-be70c7b42a8d" d="M755.1,249.76a1.22,1.22,0,0,0-1.52-.86,1.32,1.32,0,0,0-.49,1.74,1.21,1.21,0,0,0,1.52.86A1.33,1.33,0,0,0,755.1,249.76Z"/><path class="eb613b0c-f64e-4c3e-a79f-51ddb3f45b45" d="M741.93,277.51c-.34-1.46-3.29-4.5-3.46-9.18l-.11-.07c-16.45,26.59,10.27,36.47,6.22,52.65C752,300.77,731.29,299.19,741.93,277.51Z"/><path class="a554bc56-8b07-410f-81b1-fff94a636d6a" d="M744.58,320.91c4-16.18-22.67-26.06-6.22-52.65l.41-.65"/><path class="a554bc56-8b07-410f-81b1-fff94a636d6a" d="M744.58,320.91c7.39-20.14-13.29-21.72-2.65-43.4l.62-1.23"/><path class="a554bc56-8b07-410f-81b1-fff94a636d6a" d="M738.47,268.33c.17,4.68,3.12,7.72,3.46,9.18a.7.7,0,0,1,0,.4"/><path class="eb613b0c-f64e-4c3e-a79f-51ddb3f45b45" d="M763.18,252.75c7.26,3.55,19.22,7.47,24.41,20.67l.06,0c-1.47-21.35-18.4-20.86-26.22-24C762.91,251.16,763.24,252,763.18,252.75Z"/><path class="a554bc56-8b07-410f-81b1-fff94a636d6a" d="M760.44,248.92c.31.16.64.3,1,.44,7.82,3.18,24.75,2.69,26.22,24"/><path class="a554bc56-8b07-410f-81b1-fff94a636d6a" d="M762.43,252.39c.25.12.49.25.75.36,7.26,3.55,19.22,7.47,24.41,20.67l.24.61"/><path class="a554bc56-8b07-410f-81b1-fff94a636d6a" d="M760.84,248.68c.21.24.41.46.59.68,1.48,1.8,1.81,2.59,1.75,3.39,0,.19-.06.4-.12.64"/><path class="bf5aa26f-bb3f-40d9-bb4e-a33a58b99296" d="M1096.13,233.64c20.26,7.92,5.95,18.07,24.31,18.77"/><path class="bba1654e-4f5e-42a8-98c1-c51816aa688f" d="M1021.68,283l3-3.24c40.34,18.82,56.2-10.88,49.27-28.48.71-4.91,2.69-17.77,7.13-21,3.54-3.34,10.46-.94,10.46-.94C1134.35,277.56,1055.06,328.64,1021.68,283Z"/><path class="bba1654e-4f5e-42a8-98c1-c51816aa688f" d="M1021.68,283c-22.17-6.94-14.62-36.12-13.84-35.49h0c2.83,9.4,3.13,11.37,7.9,21.39l.1-.06c-.42-11.37,13.38-16.62,10.9-26l.42-.14c9.79,13.61-7.07,19.47-2.54,37Z"/><path class="adfa06e3-20a0-47ee-8949-17d782ee668c" d="M1091.51,229.28c42.84,48.28-36.45,99.36-69.83,53.7"/><path class="adfa06e3-20a0-47ee-8949-17d782ee668c" d="M1073.92,251.26c6.93,17.6-8.93,47.3-49.27,28.48"/><path class="adfa06e3-20a0-47ee-8949-17d782ee668c" d="M1073.92,251.26c.71-4.91,2.69-17.77,7.13-21l.4-.27"/><path class="adfa06e3-20a0-47ee-8949-17d782ee668c" d="M1091.51,229.28s-6.92-2.4-10.46.94a5.74,5.74,0,0,0-.8.95"/><path class="adfa06e3-20a0-47ee-8949-17d782ee668c" d="M1024.65,279.74c-4.53-17.57,12.33-23.43,2.54-37"/><path class="adfa06e3-20a0-47ee-8949-17d782ee668c" d="M1015.87,268.81c-.42-11.37,13.38-16.62,10.9-26a5.37,5.37,0,0,0-.22-.77"/><path class="b2826462-d9ed-4f26-ae05-8d441d2bc8e0" d="M1016.21,269.76c-.15-.31-.3-.62-.44-.89-4.77-10-5.07-12-7.9-21.39"/><path class="adfa06e3-20a0-47ee-8949-17d782ee668c" d="M1021.68,283c-22.17-6.94-14.62-36.12-13.84-35.49"/><path class="bf5aa26f-bb3f-40d9-bb4e-a33a58b99296" d="M1073.37,263.11c-10.17-13.93.06-27.79,4.29-28.37"/><path class="ac0f445d-40eb-4906-a956-c62507a2805d" d="M1086.64,277.7a.31.31,0,0,0-.11.08A.28.28,0,0,1,1086.64,277.7Z"/><path class="ac0f445d-40eb-4906-a956-c62507a2805d" d="M1089.91,268.32a2.53,2.53,0,0,0-.28.35C1089.68,268.44,1089.78,268.34,1089.91,268.32Z"/><path class="ac0f445d-40eb-4906-a956-c62507a2805d" d="M1086.64,277.7a.28.28,0,0,0-.11.08A.31.31,0,0,1,1086.64,277.7Zm0,16.71c-3.4-5.61-5.11-8.57-5.33-10.32-1.7,2.73-4.42,8.08-4.87,12.77a7.89,7.89,0,0,1-.35-6.53c-6.73,4.87-21.57,12.24-39.56,3.8,28,10.9,46.29-17.34,53.05-25.46-.48,1.5.67,8-.18,17.87-2-3.76-3.39-7.62-3-8.63C1085.6,279.3,1085.69,286.19,1086.69,294.41Z"/><path class="a60732cc-71e8-4f6c-b4eb-593bf84e12eb" d="M1089.45,286.54c.85-9.84-.3-16.37.18-17.87,0-.23.15-.33.28-.35"/><path class="a60732cc-71e8-4f6c-b4eb-593bf84e12eb" d="M1089.91,268.32a2.53,2.53,0,0,0-.28.35c-6.76,8.12-25,36.36-53.05,25.46"/><path class="a60732cc-71e8-4f6c-b4eb-593bf84e12eb" d="M1086.53,277.78a.28.28,0,0,1,.11-.08"/><path class="a60732cc-71e8-4f6c-b4eb-593bf84e12eb" d="M1089.45,286.54c-2-3.76-3.39-7.62-3-8.63"/><path class="a60732cc-71e8-4f6c-b4eb-593bf84e12eb" d="M1086.69,294.41c-1-8.22-1.09-15.11-.23-16.5a.32.32,0,0,1,.18-.21.18.18,0,0,1,.12-.05"/><path class="a60732cc-71e8-4f6c-b4eb-593bf84e12eb" d="M1086.69,294.41c-3.4-5.61-5.11-8.57-5.33-10.32"/><path class="a60732cc-71e8-4f6c-b4eb-593bf84e12eb" d="M1081.36,284.09c-1.7,2.73-4.42,8.08-4.87,12.77"/><path class="a60732cc-71e8-4f6c-b4eb-593bf84e12eb" d="M1076.49,296.86a7.89,7.89,0,0,1-.35-6.53c.17-.37.36-.6.5-.62"/><path class="a60732cc-71e8-4f6c-b4eb-593bf84e12eb" d="M1077.59,289.23c-.43.35-.91.73-1.45,1.1-6.73,4.87-21.57,12.24-39.56,3.8"/><path class="b00d2be3-0a0a-4130-97f7-01c62e8267e3" d="M1092.31,239.65a1.3,1.3,0,0,1,.91-1.55c.59-.08,1.16.48,1.25,1.25a1.29,1.29,0,0,1-.91,1.55C1093,241,1092.4,240.42,1092.31,239.65Z"/><path class="b00d2be3-0a0a-4130-97f7-01c62e8267e3" d="M1079.81,242.31a1.29,1.29,0,0,1,.91-1.55c.59-.08,1.15.48,1.25,1.25a1.3,1.3,0,0,1-.91,1.55C1080.46,243.64,1079.9,243.08,1079.81,242.31Z"/><path class="ac0f445d-40eb-4906-a956-c62507a2805d" d="M1104.38,259.4c-.4-1.44.73-5.62-1.37-9.77l.07-.11c26.88,14.36,8.42,37,19.62,48.87C1106.74,284.83,1123.91,272.59,1104.38,259.4Z"/><path class="a60732cc-71e8-4f6c-b4eb-593bf84e12eb" d="M1122.7,298.39c-11.2-11.89,7.26-34.51-19.62-48.87-.23-.12-.43-.24-.66-.35"/><path class="a60732cc-71e8-4f6c-b4eb-593bf84e12eb" d="M1122.7,298.39c-16-13.56,1.21-25.8-18.32-39l-1.12-.74"/><path class="a60732cc-71e8-4f6c-b4eb-593bf84e12eb" d="M1103,249.63c2.1,4.15,1,8.33,1.37,9.77a.67.67,0,0,0,.17.36"/><path class="ac0f445d-40eb-4906-a956-c62507a2805d" d="M1074.23,249.13c-4.61,6.89-13.11,16.58-11.34,30.76l-.06,0c-8.87-19.3,6.08-27.77,11.33-34.65C1073.72,247.62,1073.77,248.46,1074.23,249.13Z"/><path class="a60732cc-71e8-4f6c-b4eb-593bf84e12eb" d="M1074.77,244.39c-.19.28-.38.58-.61.87-5.25,6.88-20.2,15.35-11.33,34.65"/><path class="a60732cc-71e8-4f6c-b4eb-593bf84e12eb" d="M1074.69,248.44c-.14.22-.29.46-.46.69-4.61,6.89-13.11,16.58-11.34,30.76l.09.65"/><path class="a60732cc-71e8-4f6c-b4eb-593bf84e12eb" d="M1074.32,244.39c-.06.3-.12.6-.16.87-.44,2.36-.39,3.2.07,3.87a3.52,3.52,0,0,0,.41.51"/><path class="bba1654e-4f5e-42a8-98c1-c51816aa688f" d="M1298.77,296.77l3.75-2.19c-6.84-45.89,24.53-54.3,38.88-42.72,4.67.54,16.91,1.86,21.1-1.78,4-2.69,3.62-10.43,3.62-10.43C1332.9,183.61,1265.51,251,1298.77,296.77Z"/><path class="bba1654e-4f5e-42a8-98c1-c51816aa688f" d="M1337.16,301.58c-10-13.48-19.7,2.15-34.64-7l-3.75,2.19c.63,24.22,29.11,24.2,29,23.28h0v0c-7.89-5.32-9.62-6.12-17.58-13.57l.07-.09c10.34,3.37,18.72-9.31,26.66-4.36Z"/><path class="adfa06e3-20a0-47ee-8949-17d782ee668c" d="M1366.12,239.65c-33.22-56-100.61,11.38-67.35,57.12"/><path class="adfa06e3-20a0-47ee-8949-17d782ee668c" d="M1341.4,251.86c-14.35-11.58-45.72-3.17-38.88,42.72"/><path class="adfa06e3-20a0-47ee-8949-17d782ee668c" d="M1341.4,251.86c4.67.54,16.91,1.86,21.1-1.78a2.31,2.31,0,0,0,.4-.37"/><path class="adfa06e3-20a0-47ee-8949-17d782ee668c" d="M1366.12,239.65s.4,7.74-3.62,10.43a5.92,5.92,0,0,1-1,.54"/><path class="adfa06e3-20a0-47ee-8949-17d782ee668c" d="M1302.52,294.58c14.94,9.15,24.68-6.48,34.64,7"/><path class="adfa06e3-20a0-47ee-8949-17d782ee668c" d="M1310.26,306.34c10.34,3.37,18.72-9.31,26.66-4.36a4.44,4.44,0,0,1,.65.42"/><path class="b2826462-d9ed-4f26-ae05-8d441d2bc8e0" d="M1309.48,305.75c.25.23.5.46.71.68,8,7.45,9.69,8.25,17.58,13.57"/><path class="adfa06e3-20a0-47ee-8949-17d782ee668c" d="M1298.77,296.77c.63,24.22,29.11,24.2,29,23.28h0"/><path class="f02a69b5-4e8d-4646-89a1-8259f81ce848" d="M1330.39,249.35c10.14,14,25.51,7.14,27.13,3"/><path class="e0621e69-e405-4f32-afad-af6b35364664" d="M1320.43,232.08a.81.81,0,0,1-.1.09S1320.41,232.12,1320.43,232.08Z"/><path class="e0621e69-e405-4f32-afad-af6b35364664" d="M1329.88,231.18a2,2,0,0,1-.39.19C1329.71,231.38,1329.83,231.31,1329.88,231.18Z"/><path class="e0621e69-e405-4f32-afad-af6b35364664" d="M1320.43,232.08s-.07.06-.1.09A.81.81,0,0,0,1320.43,232.08Zm-14.31,7.4a43.21,43.21,0,0,0-13.72,39.24c-2.76-31.31,27.88-42.57,37.09-47.35-1.5.1-7.2-2.75-16.45-4.43,3,3,6.12,5.41,7.15,5.27-1.5.52-7.81-1.34-15.08-4.5,4.26,4.9,6.53,7.41,8.08,8.08-2.93,1-8.55,2.4-13,1.65A6.89,6.89,0,0,0,1306.12,239.48Z"/><path class="ef1cd2f1-9d35-46b7-89d4-54e744caf4a7" d="M1313,226.94c9.25,1.68,15,4.53,16.45,4.43.22,0,.34-.06.39-.19"/><path class="ef1cd2f1-9d35-46b7-89d4-54e744caf4a7" d="M1329.88,231.18a2,2,0,0,1-.39.19c-9.21,4.78-39.85,16-37.09,47.35"/><path class="ef1cd2f1-9d35-46b7-89d4-54e744caf4a7" d="M1320.33,232.17s.08,0,.1-.09"/><path class="ef1cd2f1-9d35-46b7-89d4-54e744caf4a7" d="M1313,226.94c3,3,6.12,5.41,7.15,5.27"/><path class="ef1cd2f1-9d35-46b7-89d4-54e744caf4a7" d="M1305.11,227.71c7.27,3.16,13.58,5,15.08,4.5a.47.47,0,0,0,.14,0,.81.81,0,0,0,.1-.09.26.26,0,0,0,.07-.11"/><path class="ef1cd2f1-9d35-46b7-89d4-54e744caf4a7" d="M1305.11,227.71c4.26,4.9,6.53,7.41,8.08,8.08"/><path class="ef1cd2f1-9d35-46b7-89d4-54e744caf4a7" d="M1313.19,235.79c-2.93,1-8.55,2.4-13,1.65"/><path class="ef1cd2f1-9d35-46b7-89d4-54e744caf4a7" d="M1300.22,237.44a6.89,6.89,0,0,0,5.9,2c.39-.07.64-.2.7-.34"/><path class="ef1cd2f1-9d35-46b7-89d4-54e744caf4a7" d="M1307.5,238.3c-.42.34-.9.73-1.38,1.18a43.21,43.21,0,0,0-13.72,39.24"/><path class="e0621e69-e405-4f32-afad-af6b35364664" d="M1350.54,222.66c-6.22-31-31.75-18.14-39.76-32.6,8.31,19.74,24,5.47,31,28.72,1.22.77,5.35.73,8.61,3.92Z"/><path class="ef1cd2f1-9d35-46b7-89d4-54e744caf4a7" d="M1310.78,190.06c8,14.46,33.54,1.55,39.76,32.6.06.26.11.5.16.76"/><path class="ef1cd2f1-9d35-46b7-89d4-54e744caf4a7" d="M1310.78,190.06c8.31,19.74,24,5.47,31,28.72.13.43.26.87.39,1.33"/><path class="ef1cd2f1-9d35-46b7-89d4-54e744caf4a7" d="M1350.42,222.7c-3.26-3.19-7.39-3.15-8.61-3.92a.69.69,0,0,1-.29-.27"/><path class="e0621e69-e405-4f32-afad-af6b35364664" d="M1312.24,255.72c15.41,14,27,1,34.71-2.55-2.28-.15-3-.44-3.52-1.07-7.51,2.9-18.61,9-31.16,3.56Z"/><path class="ef1cd2f1-9d35-46b7-89d4-54e744caf4a7" d="M1347.93,252.77c-.31.12-.64.24-1,.4-7.67,3.57-19.3,16.54-34.71,2.55"/><path class="ef1cd2f1-9d35-46b7-89d4-54e744caf4a7" d="M1344.19,251.8c-.24.09-.5.18-.76.3-7.51,2.9-18.61,9-31.16,3.56l-.58-.26"/><path class="ef1cd2f1-9d35-46b7-89d4-54e744caf4a7" d="M1347.81,253.24a7.3,7.3,0,0,1-.86-.07c-2.28-.15-3-.44-3.52-1.07a3.88,3.88,0,0,1-.35-.54"/><path class="ae5e10f6-f0d4-4335-b4da-b4bcf9f5a474" d="M1655.1,280.69c3.61,22.43-11.89,14.46-3.29,31.54"/><path class="bba1654e-4f5e-42a8-98c1-c51816aa688f" d="M1656.37,274.31c-18.3,63.19-100,16.43-79.09-36.8l4.15,1.08c4.68,46.18,37,45.79,48.06,30.67,4.39-1.8,15.88-6.4,20.82-4C1654.86,266.73,1656.37,274.31,1656.37,274.31Z"/><path class="bba1654e-4f5e-42a8-98c1-c51816aa688f" d="M1613.17,222.38c-6.3,15.74-19.56,3.29-31.74,16.21l-4.15-1.08c-5.35-23.59,22.16-31.32,22.27-30.41v0l0,0c-6.33,7.28-7.79,8.52-13.65,17.91l.1.06c9.14-6.09,20.36,3.88,26.81-3.06Z"/><path class="adfa06e3-20a0-47ee-8949-17d782ee668c" d="M1656.37,274.31c-18.3,63.19-100,16.43-79.09-36.8"/><path class="adfa06e3-20a0-47ee-8949-17d782ee668c" d="M1629.49,269.26c-11,15.12-43.38,15.51-48.06-30.67"/><path class="adfa06e3-20a0-47ee-8949-17d782ee668c" d="M1629.49,269.26c4.39-1.8,15.88-6.4,20.82-4a3.07,3.07,0,0,1,.48.24"/><path class="adfa06e3-20a0-47ee-8949-17d782ee668c" d="M1656.37,274.31s-1.51-7.58-6.06-9.08a5.15,5.15,0,0,0-1.13-.24"/><path class="adfa06e3-20a0-47ee-8949-17d782ee668c" d="M1581.43,238.59c12.18-12.92,25.44-.47,31.74-16.21"/><path class="adfa06e3-20a0-47ee-8949-17d782ee668c" d="M1586,225.13c9.14-6.09,20.36,3.88,26.81-3.06a5.23,5.23,0,0,0,.53-.59"/><path class="b2826462-d9ed-4f26-ae05-8d441d2bc8e0" d="M1585.42,225.9l.51-.83c5.86-9.39,7.32-10.63,13.65-17.91"/><path class="adfa06e3-20a0-47ee-8949-17d782ee668c" d="M1577.28,237.51c-5.35-23.59,22.16-31.32,22.27-30.41v0"/><path class="ae5e10f6-f0d4-4335-b4da-b4bcf9f5a474" d="M1619.48,274.68c6.36-16.24,22.89-13.85,25.48-10.28"/><path class="a787a4fe-9ea8-4fc2-a98f-244aa7038b16" d="M1613.84,294c-1.56-.1-7.2,3.41-13.46,8.45,2.91-5.9,4.49-8.94,5.82-10-3.09-.17-8.86,0-12.93,2a7.08,7.08,0,0,1,5.19-3.59c-7.38-3.7-20.86-13.57-22.9-34.16,5,31,37.4,33.53,47.47,35.63-1.48.31-6.26,4.62-14.8,8.77C1610.35,297.39,1612.81,294.16,1613.84,294Zm.14,0,.12.06S1614,294,1614,294Z"/><path class="a787a4fe-9ea8-4fc2-a98f-244aa7038b16" d="M1614.1,294.08,1614,294C1614,294,1614.08,294,1614.1,294.08Z"/><path class="a787a4fe-9ea8-4fc2-a98f-244aa7038b16" d="M1623.45,292.37a2.61,2.61,0,0,0-.42-.08C1623.24,292.22,1623.37,292.26,1623.45,292.37Z"/><path class="a30f5cb8-41f4-42ba-b888-de393052a685" d="M1608.23,301.06c8.54-4.15,13.32-8.46,14.8-8.77.21-.07.34,0,.42.08"/><path class="a30f5cb8-41f4-42ba-b888-de393052a685" d="M1623.45,292.37a2.61,2.61,0,0,0-.42-.08c-10.07-2.1-42.43-4.61-47.47-35.63"/><path class="a30f5cb8-41f4-42ba-b888-de393052a685" d="M1614,294c.06,0,.1,0,.12.06"/><path class="a30f5cb8-41f4-42ba-b888-de393052a685" d="M1608.23,301.06c2.12-3.67,4.58-6.9,5.61-7"/><path class="a30f5cb8-41f4-42ba-b888-de393052a685" d="M1600.38,302.47c6.26-5,11.9-8.55,13.46-8.45h.14l.12.06a.16.16,0,0,1,.1.08"/><path class="a30f5cb8-41f4-42ba-b888-de393052a685" d="M1600.38,302.47c2.91-5.9,4.49-8.94,5.82-10"/><path class="a30f5cb8-41f4-42ba-b888-de393052a685" d="M1606.2,292.46c-3.09-.17-8.86,0-12.93,2"/><path class="a30f5cb8-41f4-42ba-b888-de393052a685" d="M1593.27,294.41a7.08,7.08,0,0,1,5.19-3.59c.39,0,.67,0,.76.15"/><path class="a30f5cb8-41f4-42ba-b888-de393052a685" d="M1600.09,291.59c-.5-.22-1-.47-1.63-.77-7.38-3.7-20.86-13.57-22.9-34.16"/><path class="b00d2be3-0a0a-4130-97f7-01c62e8267e3" d="M1648.24,280.21a1.2,1.2,0,0,1,1.74.06,1.35,1.35,0,0,1-.41,1.77,1.2,1.2,0,0,1-1.73-.06A1.36,1.36,0,0,1,1648.24,280.21Z"/><path class="b00d2be3-0a0a-4130-97f7-01c62e8267e3" d="M1639.81,270.14a1.19,1.19,0,0,1,1.73.06,1.35,1.35,0,0,1-.41,1.77,1.19,1.19,0,0,1-1.73-.06A1.35,1.35,0,0,1,1639.81,270.14Z"/><path class="a787a4fe-9ea8-4fc2-a98f-244aa7038b16" d="M1645.51,295c1.62,31.69-26.22,26.17-30.4,42.33,3.17-21.34,21.83-11.82,22.91-36.2,1-1.06,5-2.17,7.36-6.13Z"/><path class="a30f5cb8-41f4-42ba-b888-de393052a685" d="M1615.11,337.3c4.18-16.16,32-10.64,30.4-42.33,0-.26,0-.51,0-.77"/><path class="a30f5cb8-41f4-42ba-b888-de393052a685" d="M1615.11,337.3c3.17-21.34,21.83-11.82,22.91-36.2,0-.46,0-.91,0-1.39"/><path class="a30f5cb8-41f4-42ba-b888-de393052a685" d="M1645.38,295c-2.37,4-6.37,5.07-7.36,6.13a.69.69,0,0,0-.21.33"/><path class="a787a4fe-9ea8-4fc2-a98f-244aa7038b16" d="M1631.38,268.48c-8-.76-20.19-3.65-31,5l0-.06c11.44-17.71,25.87-8.35,34.15-7C1632.37,267.24,1631.72,267.73,1631.38,268.48Z"/><path class="a30f5cb8-41f4-42ba-b888-de393052a685" d="M1635.58,266.6c-.33,0-.68-.06-1-.12-8.28-1.36-22.71-10.72-34.15,7"/><path class="a30f5cb8-41f4-42ba-b888-de393052a685" d="M1632.2,268.56c-.27,0-.54,0-.82-.08-8-.76-20.19-3.65-31,5l-.49.4"/><path class="a30f5cb8-41f4-42ba-b888-de393052a685" d="M1635.34,266.18a6.88,6.88,0,0,0-.81.3c-2.16.76-2.81,1.25-3.15,2a5.56,5.56,0,0,0-.19.61"/><path class="f00852fb-7e3b-4db2-9621-1b09981d923b" d="M2196.44,243.83c-13.79,17.52,3.43,18.78-12.14,29"/><path class="bba1654e-4f5e-42a8-98c1-c51816aa688f" d="M2198.35,237.64c-14.17,64.36,78.78,66.84,86,9.74l-4.12-1.23c-26,37.53-53.82,20.13-56.19,1.26-2.93-3.86-10.7-13.9-16.11-14.44C2203.26,231.87,2198.35,237.64,2198.35,237.64Z"/><path class="bba1654e-4f5e-42a8-98c1-c51816aa688f" d="M2282.64,232.06c-5-10.07-19.49-7.35-21.78-16.75l-.43.1c-2,16.94,15.37,13.14,19.78,30.74l4.12,1.23c15.83-17.59-4.32-38.78-4.85-38h0l0,0c2,9.63,2.69,11.49,3.32,22.69Z"/><path class="adfa06e3-20a0-47ee-8949-17d782ee668c" d="M2198.35,237.64c-14.17,64.36,78.78,66.84,86,9.74"/><path class="adfa06e3-20a0-47ee-8949-17d782ee668c" d="M2224,247.41c2.37,18.87,30.21,36.27,56.19-1.26"/><path class="adfa06e3-20a0-47ee-8949-17d782ee668c" d="M2224,247.41c-2.93-3.86-10.7-13.9-16.11-14.44a1.87,1.87,0,0,0-.53-.05"/><path class="adfa06e3-20a0-47ee-8949-17d782ee668c" d="M2198.35,237.64s4.91-5.77,9.56-4.67a4.79,4.79,0,0,1,1.1.38"/><path class="adfa06e3-20a0-47ee-8949-17d782ee668c" d="M2280.21,246.15c-4.41-17.6-21.8-13.8-19.78-30.74"/><path class="adfa06e3-20a0-47ee-8949-17d782ee668c" d="M2282.64,232.06c-5-10.07-19.49-7.35-21.78-16.75a5.42,5.42,0,0,1-.18-.79"/><path class="b2826462-d9ed-4f26-ae05-8d441d2bc8e0" d="M2282.79,233.06c0-.35,0-.68,0-1-.63-11.2-1.31-13.06-3.32-22.69"/><path class="adfa06e3-20a0-47ee-8949-17d782ee668c" d="M2284.33,247.38c15.83-17.59-4.32-38.78-4.85-38h0"/><path class="f00852fb-7e3b-4db2-9621-1b09981d923b" d="M2230.14,257.37c2.2-17.41-13.24-24-17.18-22.31"/><path class="a3253f5b-a741-48fc-a312-421d9c72b2f1" d="M2225.57,277a.28.28,0,0,1,.13,0S2225.6,277,2225.57,277Z"/><path class="a3253f5b-a741-48fc-a312-421d9c72b2f1" d="M2218.28,270.6a3.33,3.33,0,0,1,.4.16C2218.53,270.59,2218.4,270.56,2218.28,270.6Z"/><path class="a3253f5b-a741-48fc-a312-421d9c72b2f1" d="M2225.7,277a.28.28,0,0,0-.13,0S2225.66,277,2225.7,277Zm51-12.13c-19.09,24.19-48.32,9.35-58,5.87,1.13,1.05,3.24,7.31,8.65,15.38-.09-4.29-.68-8.39-1.51-9.05,1.41.76,4.63,6.76,7.64,14.41.28-6.64.36-10.11-.28-11.73,2.76,1.45,7.66,4.67,10.27,8.49a7.61,7.61,0,0,0-2.79-5.84C2248.8,283.1,2265.17,281.65,2276.72,264.89Z"/><path class="e99fc8eb-73db-44e4-8500-4a736d3c0843" d="M2227.33,286.14c-5.41-8.07-7.52-14.33-8.65-15.38-.15-.17-.28-.2-.4-.16"/><path class="e99fc8eb-73db-44e4-8500-4a736d3c0843" d="M2218.28,270.6a3.33,3.33,0,0,1,.4.16c9.72,3.48,39,18.32,58-5.87"/><path class="e99fc8eb-73db-44e4-8500-4a736d3c0843" d="M2225.7,277s-.1,0-.13,0"/><path class="e99fc8eb-73db-44e4-8500-4a736d3c0843" d="M2227.33,286.14c-.09-4.29-.68-8.39-1.51-9.05"/><path class="e99fc8eb-73db-44e4-8500-4a736d3c0843" d="M2233.46,291.5c-3-7.65-6.23-13.65-7.64-14.41,0,0-.08-.07-.12-.07a.28.28,0,0,0-.13,0,.2.2,0,0,0-.13,0"/><path class="e99fc8eb-73db-44e4-8500-4a736d3c0843" d="M2233.46,291.5c.28-6.64.36-10.11-.28-11.73"/><path class="e99fc8eb-73db-44e4-8500-4a736d3c0843" d="M2233.18,279.77c2.76,1.45,7.66,4.67,10.27,8.49"/><path class="e99fc8eb-73db-44e4-8500-4a736d3c0843" d="M2243.45,288.26a7.61,7.61,0,0,0-2.79-5.84c-.33-.24-.59-.33-.73-.27"/><path class="e99fc8eb-73db-44e4-8500-4a736d3c0843" d="M2238.88,282.23c.54.07,1.13.15,1.78.19,8.14.68,24.51-.77,36.06-17.53"/><path class="fa9ab833-c553-4e79-a313-6da278e1ea1b" d="M2202.6,247a1.22,1.22,0,0,0-1.52-.87,1.34,1.34,0,0,0-.5,1.75,1.23,1.23,0,0,0,1.53.86A1.32,1.32,0,0,0,2202.6,247Z"/><path class="fa9ab833-c553-4e79-a313-6da278e1ea1b" d="M2214.69,242.75a1.22,1.22,0,0,0-1.52-.87,1.33,1.33,0,0,0-.49,1.75,1.22,1.22,0,0,0,1.52.86A1.33,1.33,0,0,0,2214.69,242.75Z"/><path class="a3253f5b-a741-48fc-a312-421d9c72b2f1" d="M2201.51,270.5c-.34-1.46-3.29-4.5-3.46-9.19l-.11-.06c-16.45,26.59,10.27,36.47,6.22,52.65C2211.55,293.76,2190.87,292.18,2201.51,270.5Z"/><path class="e99fc8eb-73db-44e4-8500-4a736d3c0843" d="M2204.16,313.9c4.05-16.18-22.67-26.06-6.22-52.65l.41-.65"/><path class="e99fc8eb-73db-44e4-8500-4a736d3c0843" d="M2204.16,313.9c7.39-20.14-13.29-21.72-2.65-43.4.2-.41.41-.81.62-1.23"/><path class="e99fc8eb-73db-44e4-8500-4a736d3c0843" d="M2198.05,261.31c.17,4.69,3.12,7.73,3.46,9.19a.69.69,0,0,1,0,.4"/><path class="a3253f5b-a741-48fc-a312-421d9c72b2f1" d="M2222.76,245.74c7.26,3.55,19.23,7.47,24.41,20.67l.06,0c-1.49-21.36-18.43-20.84-26.25-24C2222.49,244.15,2222.82,244.91,2222.76,245.74Z"/><path class="e99fc8eb-73db-44e4-8500-4a736d3c0843" d="M2220,241.91c.3.15.61.3,1,.44,7.82,3.19,24.76,2.67,26.25,24"/><path class="e99fc8eb-73db-44e4-8500-4a736d3c0843" d="M2222,245.38c.25.12.49.25.75.36,7.26,3.55,19.23,7.47,24.41,20.67l.24.61"/><path class="e99fc8eb-73db-44e4-8500-4a736d3c0843" d="M2220.42,241.66a7.74,7.74,0,0,1,.56.69c1.51,1.8,1.84,2.56,1.78,3.39,0,.19-.06.4-.12.64"/><path class="a7963ac3-3dda-4ebf-a74b-3fecb34efe6b" d="M1947,99.8c-.7-22.74-14.38-11.67-9.19-30.21"/><path class="a4c5cb60-a153-47a5-b81a-a2d2640a0224" d="M1949.51,105.78c-29.9-58.07-101.08,4.89-70.53,52.68l3.86-1.94c-4.16-46.24,27.63-52.63,41.29-40.15,4.65.85,16.86,3,21.21-.44C1949.48,113.47,1949.51,105.78,1949.51,105.78Z"/><path class="a4c5cb60-a153-47a5-b81a-a2d2640a0224" d="M1879,158.46c-.78,24.22,27.65,26,27.58,25.11v0l0,0c-7.57-5.81-9.25-6.72-16.77-14.67l.08-.08c10.12,4,19.23-8.09,26.86-2.64l.26-.38c-9.16-14.1-19.79.88-34.17-9.22Z"/><path class="bfeceda6-a486-4b7f-9a0b-20a91f793b6b" d="M1949.51,105.78c-29.9-58.07-101.08,4.89-70.53,52.68"/><path class="bfeceda6-a486-4b7f-9a0b-20a91f793b6b" d="M1924.13,116.37c-13.66-12.48-45.45-6.09-41.29,40.15"/><path class="bfeceda6-a486-4b7f-9a0b-20a91f793b6b" d="M1924.13,116.37c4.65.85,16.86,3,21.21-.44.14-.1.26-.21.38-.31"/><path class="bfeceda6-a486-4b7f-9a0b-20a91f793b6b" d="M1949.51,105.78s0,7.69-4.17,10.15a5.08,5.08,0,0,1-1.11.5"/><path class="bfeceda6-a486-4b7f-9a0b-20a91f793b6b" d="M1882.84,156.52c14.38,10.1,25-4.88,34.17,9.22"/><path class="bfeceda6-a486-4b7f-9a0b-20a91f793b6b" d="M1889.89,168.76c10.12,4,19.23-8.09,26.86-2.64a3.54,3.54,0,0,1,.62.46"/><path class="be2be6f8-e44e-4f79-9c6c-9d35d3c5d2b3" d="M1889.15,168.11c.23.25.44.5.66.73,7.52,7.95,9.2,8.86,16.77,14.67"/><path class="bfeceda6-a486-4b7f-9a0b-20a91f793b6b" d="M1879,158.46c-.78,24.22,27.65,26,27.58,25.11v0"/><path class="a7963ac3-3dda-4ebf-a74b-3fecb34efe6b" d="M1913.28,113.17c9.31,14.58,25,8.76,26.91,4.72"/><path class="fcc04bd3-71d1-45a5-a5a2-af9082701d6f" d="M1904.34,95.29a.25.25,0,0,1-.1.08S1904.33,95.32,1904.34,95.29Z"/><path class="fcc04bd3-71d1-45a5-a5a2-af9082701d6f" d="M1913.83,95a2.38,2.38,0,0,1-.4.16C1913.65,95.18,1913.77,95.12,1913.83,95Z"/><path class="fcc04bd3-71d1-45a5-a5a2-af9082701d6f" d="M1904.34,95.29s-.06.06-.1.08A.25.25,0,0,0,1904.34,95.29ZM1873.66,140c-.93-31.43,30.3-40.7,39.77-44.88-1.51,0-7-3.21-16.16-5.48,2.77,3.15,5.79,5.8,6.83,5.72-1.53.42-7.72-1.84-14.79-5.46,4,5.17,6.09,7.82,7.6,8.59-3,.84-8.68,1.85-13,.81a6.94,6.94,0,0,0,5.76,2.42A43,43,0,0,0,1873.66,140Z"/><path class="bac99a43-5433-4f0a-b630-4d8ec687deea" d="M1897.27,89.68c9.14,2.27,14.65,5.49,16.16,5.48.22,0,.34,0,.4-.16"/><path class="bac99a43-5433-4f0a-b630-4d8ec687deea" d="M1913.83,95a2.38,2.38,0,0,1-.4.16c-9.47,4.18-40.7,13.45-39.77,44.88"/><path class="bac99a43-5433-4f0a-b630-4d8ec687deea" d="M1904.24,95.37s.09-.05.1-.08"/><path class="bac99a43-5433-4f0a-b630-4d8ec687deea" d="M1897.27,89.68c2.77,3.15,5.79,5.8,6.83,5.72"/><path class="bac99a43-5433-4f0a-b630-4d8ec687deea" d="M1889.31,89.94c7.07,3.62,13.26,5.88,14.79,5.46a.29.29,0,0,0,.14,0,.25.25,0,0,0,.1-.08.24.24,0,0,0,.08-.1"/><path class="bac99a43-5433-4f0a-b630-4d8ec687deea" d="M1889.31,89.94c4,5.17,6.09,7.82,7.6,8.59"/><path class="bac99a43-5433-4f0a-b630-4d8ec687deea" d="M1896.91,98.53c-3,.84-8.68,1.85-13,.81"/><path class="bac99a43-5433-4f0a-b630-4d8ec687deea" d="M1883.87,99.34a6.94,6.94,0,0,0,5.76,2.42c.4-.05.66-.17.72-.3"/><path class="bac99a43-5433-4f0a-b630-4d8ec687deea" d="M1891.08,100.66c-.44.32-.94.68-1.45,1.1a43,43,0,0,0-16,38.28"/><path class="b00d2be3-0a0a-4130-97f7-01c62e8267e3" d="M1940.42,101.71a1.21,1.21,0,0,0,1.69-.41,1.33,1.33,0,0,0-.74-1.65,1.2,1.2,0,0,0-1.68.41A1.32,1.32,0,0,0,1940.42,101.71Z"/><path class="b00d2be3-0a0a-4130-97f7-01c62e8267e3" d="M1934.06,113.35a1.2,1.2,0,0,0,1.68-.42,1.33,1.33,0,0,0-.73-1.65,1.2,1.2,0,0,0-1.68.42A1.31,1.31,0,0,0,1934.06,113.35Z"/><path class="fcc04bd3-71d1-45a5-a5a2-af9082701d6f" d="M1935,87.82c-4.41-31.39-30.65-20.15-37.8-35.1,7.15,20.24,23.62,7,29.31,30.66,1.17.86,5.29,1.08,8.37,4.47Z"/><path class="bac99a43-5433-4f0a-b630-4d8ec687deea" d="M1897.15,52.72c7.15,15,33.39,3.71,37.8,35.1,0,.26.07.51.11.77"/><path class="bac99a43-5433-4f0a-b630-4d8ec687deea" d="M1897.15,52.72c7.15,20.24,23.62,7,29.31,30.66.1.45.2.89.31,1.36"/><path class="bac99a43-5433-4f0a-b630-4d8ec687deea" d="M1934.83,87.85c-3.08-3.39-7.2-3.61-8.37-4.47a.61.61,0,0,1-.27-.28"/><path class="fcc04bd3-71d1-45a5-a5a2-af9082701d6f" d="M1894.8,118.35c14.55,15,26.92,2.78,34.78-.28-2.25-.32-3-.68-3.45-1.32-7.67,2.41-19.1,7.81-31.3,1.55Z"/><path class="bac99a43-5433-4f0a-b630-4d8ec687deea" d="M1930.59,117.7a8.87,8.87,0,0,0-1,.37c-7.86,3.06-20.23,15.25-34.78.28"/><path class="bac99a43-5433-4f0a-b630-4d8ec687deea" d="M1926.92,116.5a7.24,7.24,0,0,0-.79.25c-7.67,2.41-19.1,7.81-31.3,1.55l-.55-.3"/><path class="bac99a43-5433-4f0a-b630-4d8ec687deea" d="M1930.44,118.17l-.86-.1c-2.25-.32-3-.68-3.45-1.32a5.63,5.63,0,0,1-.31-.56"/><path class="a029bd71-b028-4a5c-bf4b-74e4a6938e70" d="M2482.13,216.31c15.11-16.26,18.1,1.63,26.17-15.74"/><path class="bba1654e-4f5e-42a8-98c1-c51816aa688f" d="M2488.42,244.83c-4-2.67-14.26-9.76-15.34-15.36-1.52-4.75,3.42-10.5,3.42-10.5,59.32-21.55,71.39,75.49,18.19,89l-1.6-4.18C2525.84,272.66,2506.49,245.34,2488.42,244.83Z"/><path class="bba1654e-4f5e-42a8-98c1-c51816aa688f" d="M2494.69,308c-15,18.41-37.09-.47-36.45-1.11h0l0,0c9.31,1.1,11.13,1.62,21.78,1.11v-.12c-10.05-4.23-9-19.64-18.11-21.05l.05-.46c15.8-3.89,14,14.71,31.11,17.5Z"/><path class="adfa06e3-20a0-47ee-8949-17d782ee668c" d="M2476.5,219c59.32-21.55,71.39,75.49,18.19,89"/><path class="adfa06e3-20a0-47ee-8949-17d782ee668c" d="M2488.42,244.83c18.07.51,37.42,27.83,4.67,59"/><path class="adfa06e3-20a0-47ee-8949-17d782ee668c" d="M2488.42,244.83c-4-2.67-14.26-9.76-15.34-15.36a3.32,3.32,0,0,1-.09-.55"/><path class="adfa06e3-20a0-47ee-8949-17d782ee668c" d="M2476.5,219s-4.94,5.75-3.42,10.5a5.65,5.65,0,0,0,.48,1.11"/><path class="adfa06e3-20a0-47ee-8949-17d782ee668c" d="M2493.09,303.79C2476,301,2477.78,282.4,2462,286.29"/><path class="adfa06e3-20a0-47ee-8949-17d782ee668c" d="M2480,307.8c-10.05-4.23-9-19.64-18.11-21.05a4.25,4.25,0,0,0-.75-.1"/><path class="b2826462-d9ed-4f26-ae05-8d441d2bc8e0" d="M2481,307.85c-.33,0-.66,0-.95.07-10.65.51-12.47,0-21.78-1.11"/><path class="adfa06e3-20a0-47ee-8949-17d782ee668c" d="M2494.69,308c-15,18.41-37.09-.47-36.45-1.11h0"/><path class="a029bd71-b028-4a5c-bf4b-74e4a6938e70" d="M2498.45,250.18c-16.23,4.12-24.1-11.35-22.88-15.65"/><path class="b5c749ae-0131-4ac3-a4a9-7abfa4693f9c" d="M2516.54,243.35a.52.52,0,0,0,0,.14A.34.34,0,0,1,2516.54,243.35Z"/><path class="b5c749ae-0131-4ac3-a4a9-7abfa4693f9c" d="M2509.73,236.39a1.88,1.88,0,0,0,.19.41A.39.39,0,0,1,2509.73,236.39Z"/><path class="b5c749ae-0131-4ac3-a4a9-7abfa4693f9c" d="M2516.56,243.49a.52.52,0,0,1,0-.14A.34.34,0,0,0,2516.56,243.49Zm-6.13,54.68c20.87-22.51,3.79-51.56-.51-61.37,1.1,1.07,7.24,2.63,15.43,7.45-4.06.35-8,.15-8.7-.64.85,1.4,6.87,4.14,14.41,6.49-6.25,1-9.51,1.43-11.12.93,1.67,2.74,5.21,7.53,9.1,9.87a6.94,6.94,0,0,1-5.81-2.32C2524.72,267,2525.06,284.32,2510.43,298.17Z"/><path class="bd9cf4e5-2385-470d-9267-3d3212b72af7" d="M2525.35,244.25c-8.19-4.82-14.33-6.38-15.43-7.45a.39.39,0,0,1-.19-.41"/><path class="bd9cf4e5-2385-470d-9267-3d3212b72af7" d="M2509.73,236.39a1.88,1.88,0,0,0,.19.41c4.3,9.81,21.38,38.86.51,61.37"/><path class="bd9cf4e5-2385-470d-9267-3d3212b72af7" d="M2516.56,243.49a.34.34,0,0,1,0-.14"/><path class="bd9cf4e5-2385-470d-9267-3d3212b72af7" d="M2525.35,244.25c-4.06.35-8,.15-8.7-.64"/><path class="bd9cf4e5-2385-470d-9267-3d3212b72af7" d="M2531.06,250.1c-7.54-2.35-13.56-5.09-14.41-6.49a.31.31,0,0,1-.09-.12.52.52,0,0,1,0-.14.29.29,0,0,1,0-.13"/><path class="bd9cf4e5-2385-470d-9267-3d3212b72af7" d="M2531.06,250.1c-6.25,1-9.51,1.43-11.12.93"/><path class="bd9cf4e5-2385-470d-9267-3d3212b72af7" d="M2519.94,251c1.67,2.74,5.21,7.53,9.1,9.87"/><path class="bd9cf4e5-2385-470d-9267-3d3212b72af7" d="M2529,260.9a6.94,6.94,0,0,1-5.81-2.32c-.26-.31-.38-.58-.33-.73"/><path class="bd9cf4e5-2385-470d-9267-3d3212b72af7" d="M2522.86,256.75c.13.55.26,1.16.37,1.83,1.49,8.46,1.83,25.74-12.8,39.59"/><path class="b00d2be3-0a0a-4130-97f7-01c62e8267e3" d="M2485.79,222.43a1.31,1.31,0,0,1-1-1.51,1.23,1.23,0,0,1,1.61-.69,1.3,1.3,0,0,1,1,1.5A1.2,1.2,0,0,1,2485.79,222.43Z"/><path class="b00d2be3-0a0a-4130-97f7-01c62e8267e3" d="M2483,235.54a1.3,1.3,0,0,1-1-1.51,1.21,1.21,0,0,1,1.59-.69,1.3,1.3,0,0,1,1,1.5A1.22,1.22,0,0,1,2483,235.54Z"/><path class="b5c749ae-0131-4ac3-a4a9-7abfa4693f9c" d="M2507.87,218.85c-1.41-.21-4.59-3-9-2.66l-.08-.11c23.4-20,35.53,6.94,50.4,1C2530.9,226.92,2527.25,205.45,2507.87,218.85Z"/><path class="bd9cf4e5-2385-470d-9267-3d3212b72af7" d="M2549.16,217.08c-14.87,5.94-27-21-50.4-1l-.57.49"/><path class="bd9cf4e5-2385-470d-9267-3d3212b72af7" d="M2549.16,217.08c-18.26,9.84-21.91-11.63-41.29,1.77l-1.09.78"/><path class="bd9cf4e5-2385-470d-9267-3d3212b72af7" d="M2498.84,216.19c4.44-.31,7.62,2.45,9,2.66a.61.61,0,0,0,.38,0"/><path class="b5c749ae-0131-4ac3-a4a9-7abfa4693f9c" d="M2508.77,267.15c-20.34.67-21.63-17.12-25.45-25,1.85,1.39,2.61,1.65,3.37,1.49,4.11,7.23,9.07,19.34,22.09,23.41Z"/><path class="bd9cf4e5-2385-470d-9267-3d3212b72af7" d="M2482.8,241.21c.17.3.35.61.52,1,3.82,7.85,5.11,25.64,25.45,25"/><path class="bd9cf4e5-2385-470d-9267-3d3212b72af7" d="M2486.28,242.94c.13.23.28.47.41.73,4.11,7.23,9.07,19.34,22.09,23.41l.6.18"/><path class="bd9cf4e5-2385-470d-9267-3d3212b72af7" d="M2482.61,241.66c.25.19.48.38.71.52,1.85,1.39,2.61,1.65,3.37,1.49a4.4,4.4,0,0,0,.6-.18"/><path class="ace58c34-133c-4cf1-b757-5414c23c113a" d="M1851.7,55c3.71-2.57,10-3.78,14.78-2.89,3.65.66-3.7,12.13-7.42,14.7s-8.38,2-10.41-1.25S1848,57.61,1851.7,55Z"/><path class="ace58c34-133c-4cf1-b757-5414c23c113a" d="M1850.58,86.27a23,23,0,0,1,11.36-10.37c3.47-1.38,2.64,12.43.68,16.63s-6.26,6.2-9.59,4.47S1848.61,90.47,1850.58,86.27Z"/><path class="ace58c34-133c-4cf1-b757-5414c23c113a" d="M1821.47,75.35c2.66-3.75,8.13-7.12,13-8,3.65-.68.45,12.74-2.21,16.49s-7.23,4.9-10.2,2.56S1818.8,79.1,1821.47,75.35Z"/><path class="f653855f-a61f-45c1-84a6-57b04e0fb6c5" d="M2642.21,153c-23.94,0-23.94-10.17-47.87-10.17S2570.4,153,2546.46,153s-23.93-10.17-47.87-10.17S2474.65,153,2450.71,153s-23.93-10.17-47.87-10.17S2378.9,153,2355,153s-23.93-10.17-47.87-10.17S2283.15,153,2259.22,153s-23.94-10.17-47.88-10.17S2187.4,153,2163.47,153s-23.94-10.17-47.88-10.17S2091.65,153,2067.71,153s-23.93-10.17-47.87-10.17S1995.9,153,1972,153s-23.94-10.17-47.88-10.17S1900.15,153,1876.21,153s-23.93-10.17-47.87-10.17S1804.4,153,1780.46,153s-23.94-10.17-47.88-10.17S1708.64,153,1684.71,153s-23.94-10.17-47.88-10.17S1612.89,153,1589,153s-23.93-10.17-47.87-10.17S1517.14,153,1493.2,153s-23.94-10.17-47.88-10.17S1421.38,153,1397.44,153s-23.93-10.17-47.87-10.17S1325.63,153,1301.69,153s-23.94-10.17-47.88-10.17S1229.88,153,1205.94,153s-23.94-10.17-47.87-10.17S1134.13,153,1110.19,153s-23.94-10.17-47.88-10.17S1038.37,153,1014.43,153s-23.93-10.17-47.87-10.17S942.62,153,918.68,153s-23.94-10.17-47.88-10.17S846.86,153,822.92,153,799,142.79,775,142.79,751.1,153,727.16,153s-23.94-10.17-47.88-10.17S655.34,153,631.4,153s-23.94-10.17-47.87-10.17S559.58,153,535.64,153s-23.94-10.17-47.88-10.17S463.82,153,439.88,153,415.93,142.79,392,142.79"/></svg>